<?xml version="1.0" standalone="no"?>
<!DOCTYPE svg PUBLIC "-//W3C//DTD SVG 20010904//EN"
 "http://www.w3.org/TR/2001/REC-SVG-20010904/DTD/svg10.dtd">
<svg version="1.0" xmlns="http://www.w3.org/2000/svg"
 width="300.000000pt" height="424.000000pt" viewBox="0 0 300.000000 424.000000"
 preserveAspectRatio="xMidYMid meet">
<metadata>
Created by potrace 1.10, written by Peter Selinger 2001-2011
</metadata>
<g transform="translate(0.000000,424.000000) scale(0.100000,-0.100000)"
fill="#000000" stroke="none">
<path d="M1526 3291 c-10 -52 -28 -213 -24 -216 2 -2 40 -7 85 -11 74 -6 82
-5 102 15 26 26 27 62 1 86 l-20 18 20 14 c28 20 26 68 -4 88 -13 8 -53 19
-89 23 -66 8 -66 8 -71 -17z m126 -13 c29 -11 41 -30 32 -53 -11 -26 -42 -36
-94 -29 -46 6 -50 9 -50 33 0 58 9 70 48 64 21 -2 49 -9 64 -15z m19 -125 c23
-22 15 -60 -13 -69 -11 -3 -44 -3 -74 1 l-54 6 0 46 0 46 61 -6 c41 -3 68 -12
80 -24z"/>
<path d="M1321 3299 c-30 -5 -56 -11 -58 -13 -2 -2 3 -43 12 -91 8 -48 15 -98
15 -111 0 -12 5 -26 11 -30 15 -9 169 16 169 29 0 9 -43 6 -117 -9 -34 -7 -38
-2 -45 66 -3 23 1 25 60 33 34 5 62 13 62 19 0 10 -22 8 -102 -8 -25 -5 -27
-2 -35 38 -10 50 -8 51 74 63 29 4 55 11 59 16 6 11 -31 10 -105 -2z"/>
<path d="M1140 3260 c0 -5 9 -56 20 -112 11 -57 20 -105 20 -107 0 -2 -39 31
-86 74 -49 46 -89 74 -94 69 -8 -8 3 -91 25 -196 l7 -33 -33 30 c-19 16 -58
52 -86 79 -33 31 -56 47 -62 41 -11 -12 181 -187 192 -175 5 4 2 53 -7 108 -9
54 -16 103 -16 107 0 4 35 -25 79 -64 43 -39 84 -71 90 -71 14 0 14 20 1 96
-23 127 -32 164 -41 164 -5 0 -9 -4 -9 -10z"/>
<path d="M1867 3129 c-31 -56 -57 -105 -57 -109 0 -14 118 -70 149 -70 75 0
128 60 118 133 -6 46 -37 80 -108 121 l-45 26 -57 -101z m163 6 c38 -40 34
-98 -8 -136 -36 -32 -66 -36 -115 -15 -76 33 -76 33 -22 129 l48 86 36 -19
c20 -10 47 -30 61 -45z"/>
<path d="M2111 2966 c-95 -95 -94 -81 -14 -166 23 -24 45 -41 49 -37 4 4 -13
29 -39 55 -26 26 -47 52 -47 58 0 6 14 23 31 40 l31 29 42 -49 c24 -27 46 -44
49 -39 3 5 -12 27 -33 48 -22 22 -40 44 -40 49 0 5 12 23 27 38 l27 28 53 -52
c29 -28 56 -49 60 -45 4 4 -20 35 -53 67 l-59 60 -84 -84z"/>
<path d="M707 2957 c-3 -7 3 -54 14 -103 10 -49 18 -95 19 -102 0 -7 -25 6
-55 28 -52 39 -75 48 -75 32 0 -13 190 -143 200 -137 5 3 -4 18 -20 33 -17 16
-30 40 -32 57 l-3 30 77 10 c107 14 109 27 3 23 l-88 -3 -13 69 c-14 74 -19
84 -27 63z"/>
<path d="M2271 2773 c-55 -71 -78 -110 -72 -116 10 -10 259 8 270 18 13 14
-45 17 -132 7 -56 -6 -103 -9 -105 -7 -2 2 26 43 62 91 57 75 78 114 62 114
-2 0 -41 -48 -85 -107z"/>
<path d="M557 2690 c-49 -57 -48 -131 3 -181 24 -25 36 -29 83 -29 48 0 58 4
86 32 30 31 46 78 39 114 -7 36 -23 23 -23 -20 0 -63 -41 -106 -100 -106 -96
0 -138 108 -69 177 16 16 22 29 16 35 -6 6 -19 -2 -35 -22z"/>
<path d="M2376 2568 c-60 -15 -111 -30 -114 -32 -4 -5 26 -143 35 -159 2 -4 8
-5 12 -2 5 2 0 35 -10 72 -10 37 -16 70 -11 74 4 4 25 9 47 11 l39 3 12 -53
c12 -55 20 -70 30 -60 3 3 -2 32 -10 64 -16 61 -12 74 26 74 9 0 23 3 31 6 11
4 19 -12 32 -65 9 -39 21 -71 26 -71 5 0 9 5 9 10 0 12 -38 152 -42 155 -2 1
-52 -11 -112 -27z"/>
<path d="M660 2431 c-25 -11 -78 -32 -119 -48 -77 -30 -96 -48 -65 -60 10 -4
65 -33 121 -64 68 -38 103 -53 103 -44 0 8 -13 21 -30 30 -32 17 -37 39 -24
118 6 31 13 40 40 52 19 8 34 19 34 24 0 15 -7 14 -60 -8z m-34 -63 c-3 -13
-6 -40 -6 -61 l0 -38 -60 33 c-33 18 -60 36 -60 39 0 7 97 46 119 48 9 1 11
-6 7 -21z"/>
<path d="M2300 2255 c0 -50 4 -85 10 -85 6 0 10 32 10 76 l0 75 110 -3 c83 -2
110 0 110 10 0 9 -31 12 -120 12 l-120 0 0 -85z"/>
<path d="M461 2183 c3 -49 38 -188 48 -191 11 -4 10 11 -5 69 -4 13 15 20 102
37 59 12 109 24 112 27 15 14 -14 14 -99 -1 -132 -23 -123 -24 -129 20 -3 22
-11 41 -17 44 -7 2 -13 0 -12 -5z"/>
<path d="M2331 2142 c-65 -35 -91 -127 -52 -186 56 -84 178 -73 217 20 30 71
7 134 -59 165 -52 23 -64 23 -106 1z m125 -46 c38 -38 43 -70 19 -116 -36 -69
-106 -81 -161 -26 -38 38 -43 69 -18 121 30 64 107 74 160 21z"/>
<path d="M666 2007 c-19 -14 -24 -75 -11 -117 9 -29 -12 -60 -40 -60 -28 0
-65 49 -65 88 0 12 -4 22 -10 22 -28 0 4 -98 41 -124 32 -22 46 -20 74 8 22
22 24 30 18 88 -4 52 -3 66 12 78 12 10 21 11 33 4 27 -17 53 -76 48 -106 -6
-29 10 -39 20 -13 11 28 -7 88 -36 117 -31 31 -56 35 -84 15z"/>
<path d="M2207 1903 c-3 -5 7 -17 24 -27 35 -20 36 -29 8 -67 -30 -43 -36 -95
-13 -120 50 -56 106 -42 159 38 20 30 35 56 33 57 -44 30 -183 119 -193 122
-7 3 -15 1 -18 -3z m132 -94 c28 -18 51 -34 51 -36 0 -9 -43 -68 -58 -80 -43
-35 -113 7 -97 58 8 23 45 89 50 89 2 0 26 -14 54 -31z"/>
<path d="M836 1802 c-3 -5 15 -28 39 -52 25 -24 45 -49 44 -55 0 -5 -35 -41
-78 -80 -44 -39 -75 -74 -71 -79 10 -10 180 141 180 158 0 10 -96 116 -105
116 -2 0 -6 -4 -9 -8z"/>
<path d="M2020 1672 c-35 -32 -60 -61 -54 -64 5 -4 33 16 62 44 l53 51 35 -34
35 -33 -53 -48 c-30 -26 -46 -47 -38 -48 8 0 34 18 57 41 l42 40 30 -33 31
-33 -51 -49 c-27 -26 -48 -53 -46 -59 1 -5 31 16 65 49 l62 59 -76 85 c-42 47
-79 86 -82 88 -4 1 -36 -24 -72 -56z"/>
<path d="M960 1663 c0 -5 21 -21 47 -38 25 -16 51 -33 56 -36 5 -4 -19 -48
-52 -98 -34 -50 -59 -96 -55 -102 5 -8 144 178 144 194 0 7 -120 87 -130 87
-6 0 -10 -3 -10 -7z"/>
<path d="M1924 1578 c4 -13 10 -30 12 -39 4 -11 -6 -23 -30 -37 l-35 -21 -43
24 c-25 14 -49 21 -56 16 -8 -4 4 -15 33 -29 40 -19 44 -25 35 -41 -27 -52 8
-121 62 -121 23 0 120 39 136 55 6 5 -103 215 -111 215 -5 0 -6 -10 -3 -22z
m61 -128 c14 -27 25 -52 25 -54 0 -11 -80 -46 -104 -46 -30 0 -59 38 -54 71 3
23 71 78 95 79 7 0 24 -22 38 -50z"/>
<path d="M1175 1530 c-33 -13 -52 -41 -79 -116 -28 -77 -31 -94 -17 -94 5 0
21 35 36 79 14 43 34 86 44 95 20 18 63 21 92 5 39 -20 41 -53 10 -144 -19
-53 -26 -87 -20 -91 14 -8 13 -10 43 81 30 93 32 112 10 143 -23 33 -86 56
-119 42z"/>
<path d="M1637 1494 c-14 -14 -7 -35 11 -32 9 2 17 10 17 17 0 16 -18 25 -28
15z"/>
<path d="M1495 1428 l-7 -53 -64 3 c-41 3 -64 0 -64 -7 0 -7 25 -11 65 -11
l65 0 0 -51 0 -51 -75 4 c-52 2 -75 -1 -75 -8 0 -8 30 -13 83 -16 45 -2 83 -4
83 -4 1 1 5 56 9 124 5 82 4 122 -3 122 -6 0 -14 -24 -17 -52z"/>
</g>
</svg>
