<svg version="1.1" id="Layer_1" xmlns="http://www.w3.org/2000/svg" xmlns:xlink="http://www.w3.org/1999/xlink" x="0px" y="0px"
	 width="100%" viewBox="0 0 720 1024" enable-background="new 0 0 720 1024" xml:space="preserve">
<path fill="#000000" opacity="1.000000" stroke="none" 
	d="
M273.732422,257.206238 
	C273.155670,253.013077 274.569427,250.683914 278.365997,249.845139 
	C279.817719,249.524414 281.324371,249.090210 282.585938,248.338455 
	C286.523010,245.992432 288.813141,247.703918 291.229065,250.955582 
	C298.177765,260.307953 305.397278,269.459412 312.536591,278.669495 
	C313.546356,279.972076 314.702087,281.161499 316.533081,283.251007 
	C316.533081,276.623993 316.931000,270.914581 316.437622,265.283264 
	C315.737946,257.297729 316.010406,249.309799 315.621582,241.334656 
	C315.450562,237.827423 316.467987,235.598541 320.070557,234.746246 
	C323.236664,233.997253 326.073883,231.923630 329.916595,232.268921 
	C330.309784,239.807846 330.803589,247.242996 331.062653,254.686310 
	C331.537354,268.325775 331.767090,281.974487 332.332336,295.609650 
	C332.501495,299.689453 331.369263,301.992828 327.210938,303.307495 
	C313.719696,307.572815 318.189606,308.953644 309.228882,297.943329 
	C302.411774,289.566956 295.925415,280.921387 288.709290,271.646790 
	C288.032227,278.271332 288.352509,283.993256 288.541077,289.712341 
	C288.793365,297.363220 288.965149,305.017578 289.312897,312.664032 
	C289.444580,315.559296 288.404785,317.188690 285.656067,318.339203 
	C274.039978,323.201172 274.006744,323.327942 266.262787,313.521576 
	C255.222534,299.541016 244.285385,285.479034 233.316452,271.442230 
	C232.511612,270.412292 231.449753,269.513062 231.286789,267.641663 
	C235.135208,265.027557 239.749893,263.795074 244.253189,262.370270 
	C246.566330,261.638397 247.438568,263.769684 248.504593,265.133331 
	C255.989319,274.707794 263.407867,284.333923 270.861694,293.932617 
	C271.838623,295.190674 272.895813,296.386475 274.409424,298.203705 
	C275.399384,284.135559 273.520264,270.917603 273.732422,257.206238 
z"/>
<path fill="#000000" opacity="1.000000" stroke="none" 
	d="
M437.413849,308.822998 
	C427.026489,305.764801 417.026642,302.842651 406.552185,299.781799 
	C409.181580,290.488770 411.584076,281.877747 414.057343,273.287079 
	C417.138489,262.584900 420.493805,251.955536 423.290771,241.180542 
	C424.480591,236.597000 426.430511,235.851212 430.693756,237.229279 
	C440.022949,240.244888 449.507233,242.777710 458.895538,245.615662 
	C461.107422,246.284286 463.285828,247.205231 465.314240,248.312943 
	C471.608002,251.749908 476.407471,256.320831 476.318176,264.203949 
	C476.231110,271.889221 472.241028,276.931793 465.453949,279.929230 
	C465.203217,281.685486 466.642456,282.346466 467.413513,283.312775 
	C472.091949,289.175995 472.352203,295.442322 469.283447,302.034912 
	C466.267609,308.513794 460.817902,310.991272 454.004181,311.385956 
	C448.409302,311.710052 443.113190,310.356781 437.413849,308.822998 
M444.869537,297.716003 
	C451.704559,298.111145 454.434937,296.648010 455.373962,292.087097 
	C456.147705,288.329041 453.504089,285.016449 447.784454,283.104492 
	C442.910065,281.475037 437.928650,280.166504 432.998230,278.703613 
	C431.214569,278.174438 429.633606,278.206451 428.992615,280.330078 
	C427.817139,284.224487 426.031677,287.997101 426.203308,292.553955 
	C432.253113,294.270569 438.140472,295.941101 444.869537,297.716003 
M437.998901,267.448364 
	C442.498444,268.590912 446.800140,270.526337 451.524139,270.771790 
	C455.166626,270.961060 458.248138,270.072266 459.412201,266.194519 
	C460.644287,262.090210 458.557190,259.390808 455.041321,257.784363 
	C449.450073,255.229691 443.481201,253.907150 437.472565,252.504791 
	C435.555664,255.779022 435.363129,259.199036 434.115387,262.220490 
	C432.704468,265.637177 434.255585,266.777313 437.998901,267.448364 
z"/>
<path fill="#000000" opacity="1.000000" stroke="none" 
	d="
M488.237610,327.430115 
	C501.364227,311.453735 514.348511,295.824158 527.270630,280.143341 
	C529.058716,277.973480 530.564148,277.939484 532.667419,279.739471 
	C540.260437,286.237610 548.263855,292.288269 555.536682,299.120605 
	C565.366760,308.355225 570.551208,319.750000 566.535034,333.320557 
	C562.657593,346.422668 553.786255,354.979706 540.084534,357.762207 
	C532.374207,359.327972 525.044556,357.395813 518.453064,353.599976 
	C507.417328,347.244781 498.544403,338.032043 488.773682,330.006927 
	C488.100220,329.453735 487.827637,328.658875 488.237610,327.430115 
M541.700073,340.353821 
	C548.569458,335.368286 553.087219,329.161896 551.810608,320.147339 
	C550.242188,309.071625 540.810486,304.866821 533.476990,298.241730 
	C524.791382,308.802887 516.087708,318.262787 508.340302,328.988129 
	C512.999878,332.723389 516.956726,336.286438 521.302673,339.285400 
	C527.483154,343.550323 534.165344,344.325562 541.700073,340.353821 
z"/>
<path fill="#000000" opacity="1.000000" stroke="none" 
	d="
M612.804810,595.070129 
	C625.831177,604.606567 630.914246,618.665222 626.756104,633.014221 
	C621.847107,649.954407 608.838074,661.571411 593.157349,662.062012 
	C574.191833,662.655212 556.123352,647.472839 557.746033,625.452393 
	C559.685913,599.126587 586.368164,578.989563 612.804810,595.070129 
M613.192627,628.699707 
	C614.484009,619.238464 609.853882,611.244751 600.721375,607.168518 
	C592.403320,603.455811 582.989563,605.321960 577.479858,611.776001 
	C571.373291,618.929199 570.368958,629.077820 575.520691,636.262085 
	C580.791016,643.611816 588.200256,647.174133 597.197998,645.536499 
	C605.936768,643.945923 610.927429,637.982727 613.192627,628.699707 
z"/>
<path fill="#000000" opacity="1.000000" stroke="none" 
	d="
M401.633179,724.438110 
	C409.177429,721.195496 415.424805,721.920837 420.460876,728.477356 
	C421.451569,729.767151 422.984344,730.637207 424.253418,731.717041 
	C429.523743,736.201782 433.411530,736.614685 439.628906,733.645630 
	C441.602234,732.703308 441.819855,731.358948 441.384277,729.581604 
	C440.513153,726.027283 439.636566,722.473877 438.719391,718.931274 
	C438.053131,716.357788 438.814331,715.028015 441.581146,714.323181 
	C456.063538,710.634155 452.933075,709.854126 456.236176,722.356079 
	C460.527435,738.598328 464.304260,754.976379 468.576935,771.223816 
	C469.611176,775.156616 468.584900,776.670349 464.772278,777.400879 
	C453.210083,779.616394 442.219177,784.631409 430.148651,784.383423 
	C413.921265,784.049988 402.984802,768.783020 407.915771,753.361816 
	C409.172272,749.432251 411.957214,746.536926 414.941162,742.836304 
	C408.857788,737.487549 402.834045,732.191223 396.934326,727.003906 
	C398.215851,724.827881 399.815002,724.865601 401.633179,724.438110 
M426.682709,752.179626 
	C421.049927,758.478882 422.709625,767.704102 430.115814,770.035339 
	C436.912476,772.174744 443.764313,769.888489 449.218658,766.753906 
	C452.286835,764.990662 448.392883,759.289368 447.783783,755.343811 
	C447.456207,753.221741 446.785278,751.152100 446.260590,749.061035 
	C445.726746,746.933533 444.471924,745.922485 442.243683,746.598572 
	C437.190521,748.131653 431.758148,748.556152 426.682709,752.179626 
z"/>
<path fill="#000000" opacity="1.000000" stroke="none" 
	d="
M199.344635,359.667603 
	C199.029907,362.846008 200.250259,364.841919 202.276428,366.602692 
	C204.789627,368.786652 207.089920,371.214783 209.590088,373.414825 
	C211.385300,374.994598 211.359879,376.433228 209.730453,378.033203 
	C198.781158,388.784729 203.324280,389.313812 192.445969,379.347168 
	C180.285599,368.205933 168.347244,356.821442 156.129135,345.744812 
	C153.001038,342.908966 152.446930,341.113342 155.709930,337.819366 
	C163.300217,330.157013 163.099915,329.995117 171.110153,337.459229 
	C175.240509,341.307953 179.446747,345.075287 184.518021,349.699463 
	C184.518021,345.763672 184.668030,342.878113 184.489334,340.013123 
	C183.992233,332.042480 183.555664,324.059296 182.708023,316.122437 
	C182.163803,311.026642 183.524460,307.076508 187.455154,303.770599 
	C189.692368,301.888977 191.543030,299.547760 194.638321,296.285065 
	C195.278214,302.824860 195.875458,307.966675 196.261917,313.124268 
	C196.734268,319.427887 197.081528,325.742310 197.380600,332.056915 
	C197.535629,335.330597 199.018997,336.605743 202.362793,336.826691 
	C214.643188,337.638062 226.904938,338.733063 239.172195,339.739716 
	C240.455780,339.845001 241.876709,339.558563 242.860107,340.763336 
	C239.795807,349.127258 231.756866,354.324829 223.392868,353.569702 
	C217.757004,353.060883 212.096771,352.825928 206.449448,352.438965 
	C199.301117,351.949158 199.250900,351.985107 199.344635,359.667603 
z"/>
<path fill="#000000" opacity="1.000000" stroke="none" 
	d="
M563.001526,376.966614 
	C561.518372,378.037231 560.312378,378.910950 558.950745,379.897339 
	C559.677673,383.563385 562.297424,386.036102 564.126221,388.906830 
	C567.884644,394.806244 571.730591,400.654999 575.720703,406.399445 
	C577.587585,409.087158 577.220886,410.874878 574.427429,412.437439 
	C572.979919,413.247192 571.624451,414.239227 570.295898,415.239777 
	C568.078979,416.909332 566.472168,416.489563 564.950684,414.179230 
	C556.799622,401.802460 548.608887,389.451355 540.340637,377.152649 
	C538.754272,374.792969 539.207581,373.380615 541.479797,371.876434 
	C557.730164,361.118805 573.961914,350.332062 590.118713,339.434784 
	C593.052551,337.455963 594.654053,338.051361 596.502625,340.890411 
	C603.954712,352.335052 611.524963,363.705109 619.222229,374.986298 
	C621.363586,378.124634 621.407715,380.259796 617.819458,382.118500 
	C615.629639,383.252808 613.610535,384.716492 610.932434,386.397797 
	C606.352234,379.593597 601.933594,373.008209 597.492981,366.437592 
	C591.465759,357.519287 591.457214,357.522217 582.830200,363.909454 
	C582.434875,364.202148 582.105164,364.583496 581.318909,365.325500 
	C583.410156,370.058411 586.898682,374.089966 589.659424,378.539490 
	C591.151489,380.944183 592.590149,383.425079 594.400452,385.579559 
	C597.538086,389.313782 596.786621,391.693970 592.684570,394.140961 
	C586.877991,397.604767 587.015869,397.828949 583.200317,392.076721 
	C578.976196,385.708649 574.745911,379.344574 570.562317,373.044922 
	C567.322083,373.301270 565.614746,375.644714 563.001526,376.966614 
z"/>
<path fill="#000000" opacity="1.000000" stroke="none" 
	d="
M461.918671,706.945923 
	C473.671265,700.251709 485.137909,693.807922 496.496735,687.179382 
	C499.636658,685.347107 501.595062,685.126221 503.643341,688.811646 
	C512.781799,705.254517 522.071228,721.616516 531.559570,737.859680 
	C533.792419,741.682129 533.185791,743.499512 529.381653,745.574402 
	C517.837158,751.871216 506.399597,758.377258 495.103821,765.109558 
	C491.376221,767.331238 489.418549,767.067017 487.351929,763.086121 
	C483.835083,756.311707 483.590179,756.376892 490.006470,752.638855 
	C496.335876,748.951538 502.643982,745.211304 509.129272,741.814697 
	C512.578674,740.007996 513.476318,738.054199 511.181427,734.792175 
	C510.324036,733.573425 509.661407,732.210754 508.974579,730.880432 
	C507.715088,728.440674 506.153839,728.110474 503.734314,729.543152 
	C497.288239,733.359863 490.661591,736.872375 484.228882,740.710510 
	C481.390839,742.403748 479.662659,741.941895 478.367157,738.976562 
	C477.769470,737.608459 477.040894,736.277283 476.215393,735.033081 
	C474.556183,732.532349 475.064819,730.944641 477.755920,729.491760 
	C483.907867,726.170654 489.846191,722.451111 496.022858,719.179565 
	C499.647797,717.259521 500.312988,715.248413 498.032379,711.714111 
	C492.968842,703.867371 495.500061,703.111877 486.059937,708.457397 
	C479.830139,711.984985 473.494629,715.352539 467.464874,719.197021 
	C463.640930,721.635071 461.441589,720.820679 459.795349,716.942322 
	C459.601532,716.485657 459.365631,716.022339 459.049744,715.645569 
	C455.581085,711.508362 456.971588,708.839844 461.918671,706.945923 
z"/>
<path fill="#000000" opacity="1.000000" stroke="none" 
	d="
M600.931335,528.630615 
	C597.595886,531.340698 594.005371,530.203552 590.615906,530.159546 
	C587.861572,530.123840 587.938782,527.626343 587.861755,525.652893 
	C587.439575,514.843750 587.067749,504.032593 586.687927,493.221802 
	C586.646973,492.057281 586.673462,490.890533 586.656372,489.725006 
	C586.502502,479.255585 586.479553,478.895447 596.682739,478.267578 
	C613.787048,477.214996 630.924683,476.709595 648.043945,475.884613 
	C651.418091,475.722015 652.977661,477.068451 653.086792,480.422821 
	C653.551941,494.727020 654.051147,509.030182 654.589966,523.331787 
	C654.667603,525.393616 653.813843,526.497437 651.823181,526.697449 
	C650.003479,526.880249 648.164490,526.882324 646.348816,527.092529 
	C642.855164,527.497070 641.661926,525.904358 641.584106,522.514587 
	C641.400696,514.531311 641.069153,506.544769 640.500366,498.580780 
	C640.312866,495.956665 641.170654,492.237396 636.040771,492.661621 
	C627.257874,493.388000 627.149292,493.193695 627.314331,499.053955 
	C627.501648,505.705566 627.715576,512.364197 628.222839,518.996460 
	C628.591370,523.815491 625.494080,523.910889 622.187134,524.091187 
	C618.779541,524.276917 615.287537,524.793457 615.114197,519.675476 
	C614.860901,512.194458 614.489319,504.717010 614.115112,497.240692 
	C614.067383,496.286499 613.701416,495.348206 613.520630,494.565948 
	C612.957520,494.313629 612.665833,494.079071 612.361694,494.061646 
	C600.263977,493.367523 600.427124,493.372467 600.252930,505.268219 
	C600.140564,512.937927 601.901428,520.515259 600.931335,528.630615 
z"/>
<path fill="#000000" opacity="1.000000" stroke="none" 
	d="
M381.999084,299.392273 
	C373.337189,299.368256 365.171814,299.198761 357.014557,299.385376 
	C353.047821,299.476166 351.760132,297.901489 351.831726,294.081757 
	C352.187408,275.100739 352.428802,256.117126 352.590942,237.133377 
	C352.617676,234.003021 353.620270,232.621475 356.910461,232.649780 
	C370.901642,232.770096 384.894287,232.775436 398.886047,232.725861 
	C402.138428,232.714340 403.421143,234.190628 403.255798,237.292053 
	C403.184937,238.621124 403.144867,239.962982 403.242950,241.287781 
	C403.513519,244.943237 401.865753,246.340820 398.232513,246.264297 
	C389.906952,246.088974 381.568329,246.361252 373.250916,246.040146 
	C368.528198,245.857819 368.117584,248.362045 368.326691,251.963074 
	C368.522247,255.330231 367.309601,259.223541 373.142792,259.003448 
	C380.126892,258.739929 387.133331,259.134216 394.127014,259.033234 
	C398.613312,258.968475 399.388489,261.499725 399.099792,265.163971 
	C398.833435,268.545105 399.770203,272.493927 394.108826,272.310028 
	C387.119720,272.083008 380.113525,272.383575 373.124390,272.157440 
	C369.391632,272.036652 367.983093,273.418884 368.271301,277.095825 
	C368.489502,279.879547 368.314545,282.694061 368.314545,285.748810 
	C378.341187,286.681854 387.941620,286.571106 397.537689,286.694916 
	C399.688538,286.722656 402.738953,285.514832 403.688049,288.438385 
	C404.710236,291.587189 404.563019,295.065796 403.525696,298.276611 
	C403.039734,299.780823 401.287537,299.420471 399.989349,299.422760 
	C394.159241,299.432953 388.329071,299.406525 381.999084,299.392273 
z"/>
<path fill="#000000" opacity="1.000000" stroke="none" 
	d="
M311.987610,741.647156 
	C307.044861,753.909302 302.185394,765.760254 297.421326,777.649536 
	C296.366241,780.282593 295.114746,781.285400 292.172150,780.000244 
	C278.422638,773.995300 280.382935,777.167603 285.372437,764.320679 
	C288.804779,755.483154 292.821350,746.859436 295.949188,737.920471 
	C298.919220,729.432495 296.388763,723.673340 289.272339,720.378723 
	C281.099091,716.594788 274.333252,718.816223 270.313934,727.357300 
	C266.208801,736.080627 262.872406,745.162048 258.994751,753.996887 
	C253.938812,765.516357 257.178223,765.391113 243.711700,759.747192 
	C241.036652,758.626038 240.109192,757.351562 241.353561,754.461548 
	C246.222595,743.153137 250.619431,731.631836 255.779648,720.461182 
	C261.154449,708.825867 271.631897,702.675415 282.375671,703.944580 
	C298.239349,705.818542 310.128571,715.121338 312.878418,727.923645 
	C313.841309,732.406494 313.340881,736.864075 311.987610,741.647156 
z"/>
<path fill="#000000" opacity="1.000000" stroke="none" 
	d="
M576.441650,674.558655 
	C580.694702,678.818298 584.616333,682.913879 588.728760,686.807861 
	C590.989258,688.948242 591.359009,690.578430 588.902893,692.940186 
	C582.177612,699.407043 575.851318,706.297241 569.001404,712.623962 
	C558.000000,722.785217 544.856628,723.630737 535.170776,715.223206 
	C525.983704,707.248596 524.005554,695.536255 530.015381,684.952026 
	C532.773682,680.094299 536.759460,676.289429 540.683655,672.446228 
	C542.325439,670.838257 544.254333,669.523376 547.767822,666.693970 
	C543.010559,662.776794 539.430298,659.819885 535.839783,656.875549 
	C533.656494,655.085144 533.964050,653.534180 535.788635,651.484314 
	C543.969543,642.293701 543.923157,642.233948 552.445312,650.686218 
	C560.372559,658.548462 568.275940,666.434692 576.441650,674.558655 
M549.543457,705.011536 
	C551.309448,705.787964 553.095215,705.811829 554.891113,705.131470 
	C561.727295,702.541504 565.750061,696.876099 571.212891,691.134827 
	C568.484375,688.828796 566.192139,687.139709 564.190186,685.157410 
	C554.451050,675.513611 554.478577,675.485840 545.688599,686.436890 
	C539.882019,693.670959 540.927002,699.703796 549.543457,705.011536 
z"/>
<path fill="#000000" opacity="1.000000" stroke="none" 
	d="
M156.845459,491.167450 
	C161.301056,493.335205 163.237335,496.112640 161.490448,500.937286 
	C160.494141,503.688965 160.308380,506.734131 159.794403,509.452728 
	C157.245941,510.461670 155.932907,508.816315 154.514297,507.855591 
	C137.272156,496.178497 120.111137,484.381073 102.814423,472.785889 
	C99.986191,470.889984 99.579414,468.785645 99.778969,465.658142 
	C100.286430,457.705139 103.604630,453.665192 112.037605,451.949921 
	C130.940964,448.105011 149.576859,442.944611 168.318924,438.308868 
	C169.448624,438.029419 170.553040,437.599884 172.184372,438.493011 
	C172.273575,443.226013 171.173721,448.031036 169.882156,452.785614 
	C169.480576,454.263885 167.864182,454.401093 166.591629,454.704254 
	C164.001724,455.321259 161.394928,455.871399 158.785034,456.399353 
	C155.997482,456.963196 154.614700,458.462433 154.221436,461.449860 
	C153.462357,467.216278 152.742401,473.064606 151.119354,478.619843 
	C149.358444,484.646942 150.721420,488.600800 156.845459,491.167450 
M120.838463,464.841675 
	C120.093246,465.372131 118.732887,464.793182 118.367775,466.402039 
	C124.725334,470.418854 131.125031,474.462280 137.922668,478.757141 
	C139.841461,472.401794 140.628632,466.746429 141.285721,460.318939 
	C134.359512,461.811859 127.928406,463.198090 120.838463,464.841675 
z"/>
<path fill="#000000" opacity="1.000000" stroke="none" 
	d="
M175.172943,580.099304 
	C177.777802,587.637939 178.892685,594.998657 178.205017,602.555908 
	C177.989502,604.924377 178.335739,608.239197 175.394958,608.875977 
	C171.864456,609.640503 168.099503,608.902222 164.731873,607.473572 
	C163.331238,606.879272 164.146561,605.112000 164.329712,603.816895 
	C165.251389,597.299927 164.888702,590.881042 162.778931,584.603210 
	C161.977188,582.217590 161.001099,579.902649 159.243927,578.071655 
	C157.604233,576.363098 155.729492,574.808899 153.112854,575.733276 
	C150.623337,576.612732 149.510025,578.724121 149.408859,581.176208 
	C149.278931,584.325256 149.163208,587.541138 149.647400,590.633362 
	C150.323441,594.950684 150.342911,599.257324 150.279663,603.575439 
	C150.171707,610.947754 147.426910,616.845215 140.421158,620.141113 
	C133.232956,623.522827 126.204025,622.887634 120.338020,617.735718 
	C109.192047,607.946777 106.232086,594.884460 106.999390,580.669800 
	C107.133018,578.194336 108.574257,576.653442 111.292915,576.946167 
	C114.223267,577.261719 117.144409,577.662781 120.183121,578.040649 
	C120.770470,583.874756 119.580139,589.415771 121.321785,594.746704 
	C122.255432,597.604492 123.136444,600.475159 124.978455,602.894714 
	C126.850060,605.353149 129.335770,606.576904 132.415085,605.629028 
	C135.354218,604.724426 135.814346,602.199158 135.704041,599.582825 
	C135.424118,592.942871 134.859772,586.309753 134.760330,579.668640 
	C134.611389,569.720703 138.187241,563.966919 145.914139,560.988403 
	C153.601181,558.025330 161.823166,560.346924 167.954895,567.208252 
	C171.224838,570.867188 173.374344,575.161377 175.172943,580.099304 
z"/>
<path fill="#000000" opacity="1.000000" stroke="none" 
	d="
M622.279419,396.242737 
	C624.339661,394.565613 625.855835,392.712097 628.762756,391.942810 
	C631.361267,396.334045 632.411133,401.346313 633.727905,406.219879 
	C634.189270,407.927551 632.445984,408.771088 631.350769,409.734314 
	C621.229126,418.636566 611.089539,427.518372 600.967712,436.420563 
	C599.867981,437.387817 598.439087,438.053436 597.659973,440.229675 
	C605.642029,441.055969 613.446716,441.897125 621.258789,442.662933 
	C628.700623,443.392517 636.148438,444.064331 643.597900,444.712402 
	C645.212280,444.852844 646.591431,445.288025 647.148499,446.933716 
	C648.521545,450.989838 649.821228,455.070801 651.013000,458.720947 
	C649.908630,460.269226 648.861267,460.248932 647.892090,460.158112 
	C628.857788,458.375275 609.825989,456.565186 590.794189,454.756195 
	C589.635376,454.646027 588.483032,454.455231 587.322632,454.376068 
	C579.306946,453.829224 579.306519,453.835571 576.735962,446.113495 
	C574.226135,438.573730 574.290100,438.646545 580.492432,433.197510 
	C594.372131,421.003418 608.181641,408.729462 622.279419,396.242737 
z"/>
<path fill="#000000" opacity="1.000000" stroke="none" 
	d="
M127.184433,381.377136 
	C131.367767,373.234558 137.122040,367.272217 145.286987,363.725250 
	C148.716492,362.235413 151.043060,362.490021 151.820557,366.665314 
	C152.062851,367.966522 152.397247,369.281372 152.912598,370.495209 
	C154.423920,374.054871 153.607620,375.951141 149.764389,377.625397 
	C139.930817,381.909241 135.126724,393.732361 138.674698,403.510193 
	C142.143417,413.069550 153.933121,419.048859 164.004242,416.356445 
	C173.854233,413.723175 180.827301,402.635406 178.336624,392.120514 
	C177.255096,387.554596 178.751663,386.074310 182.458893,385.066833 
	C183.257309,384.849854 184.012482,384.476135 184.791595,384.185425 
	C190.291626,382.132874 191.313950,382.624634 192.291061,388.656555 
	C194.886597,404.679443 189.037659,417.483490 176.334579,426.951019 
	C164.108032,436.063324 148.655518,435.270996 135.971954,425.733734 
	C124.435333,417.058960 119.836418,401.761383 124.593582,387.727112 
	C125.286346,385.683319 126.197891,383.713715 127.184433,381.377136 
z"/>
<path fill="#000000" opacity="1.000000" stroke="none" 
	d="
M369.232605,750.967163 
	C367.878418,762.304504 366.444153,773.178528 365.278107,784.081299 
	C364.466003,791.674255 364.348267,792.054810 357.029053,791.196167 
	C344.311157,789.704163 331.631866,787.864807 318.898438,786.533875 
	C314.829102,786.108521 313.612427,784.622009 314.581635,780.815613 
	C314.905304,779.544556 314.773010,778.163330 314.922180,776.840698 
	C315.236420,774.054871 316.483124,772.818909 319.590179,773.260681 
	C327.982758,774.454102 336.437378,775.215454 344.824249,776.442993 
	C348.173553,776.933228 349.922028,776.167175 350.201324,772.642212 
	C350.410950,769.996582 350.641388,767.323608 351.222321,764.743896 
	C351.907959,761.699280 350.916901,760.530579 347.840912,760.201477 
	C340.567627,759.423401 333.344543,758.131775 326.061829,757.503540 
	C322.054199,757.157837 321.332001,755.242188 321.962067,751.901001 
	C322.239258,750.430969 322.572235,748.956360 322.667053,747.470215 
	C322.852844,744.556885 324.319061,744.079041 327.025787,744.338928 
	C335.594543,745.161804 344.077362,746.948608 353.180084,747.012573 
	C354.024292,740.603333 355.043213,734.409912 355.582092,728.175049 
	C355.885895,724.659851 357.120697,723.255981 360.608887,724.256592 
	C361.087219,724.393799 361.583435,724.515503 362.077271,724.544800 
	C374.227509,725.265076 371.814117,725.276672 370.911438,736.663513 
	C370.544250,741.295410 369.825714,745.899475 369.232605,750.967163 
z"/>
<path fill="#000000" opacity="1.000000" stroke="none" 
	d="
M135.107910,524.833740 
	C142.688812,524.173706 149.821732,523.661194 156.925278,522.881226 
	C161.036240,522.429871 163.361420,522.915161 163.493240,528.095154 
	C163.755859,538.414429 164.088257,538.462646 154.005295,539.475159 
	C141.104874,540.770630 128.201981,542.057190 115.282532,543.136841 
	C111.889313,543.420471 111.052681,544.788757 111.544228,547.940369 
	C112.054855,551.214417 112.212372,554.551331 112.381844,557.867981 
	C112.491295,560.010010 114.416000,562.950195 111.352287,564.036194 
	C108.131676,565.177673 104.554909,565.911072 101.058212,564.829651 
	C99.754646,564.426575 99.752419,563.020630 99.643745,561.864868 
	C98.056564,544.984985 96.499695,528.102295 94.878319,511.225739 
	C94.610794,508.441101 95.914436,507.202881 98.479202,506.968292 
	C100.135094,506.816833 101.820854,506.898499 103.456963,506.643250 
	C107.200310,506.059082 108.472771,507.588806 108.433136,511.307800 
	C108.392624,515.108704 109.106323,518.912231 109.351326,522.723450 
	C109.536354,525.601746 110.830734,526.998840 113.789436,526.728455 
	C120.740730,526.093140 127.694702,525.487061 135.107910,524.833740 
z"/>
<path fill="#000000" opacity="1.000000" stroke="none" 
	d="
M219.104721,720.118835 
	C226.044434,711.175659 232.766449,702.513550 239.979553,693.218689 
	C231.346176,686.389526 222.973953,679.766968 214.938538,673.410828 
	C215.068283,672.461304 215.043701,672.273438 215.118912,672.143005 
	C221.203918,661.593140 221.381546,661.543274 230.858658,668.903931 
	C239.794006,675.844055 248.624390,682.922302 257.660431,689.727966 
	C260.484161,691.854736 260.567841,693.529480 258.482971,696.182007 
	C246.457047,711.482056 234.500549,726.837280 222.618301,742.249146 
	C220.724533,744.705505 219.251633,744.619446 216.888107,742.859924 
	C207.187195,735.638306 207.134048,735.702393 214.292755,726.312561 
	C215.805969,724.327759 217.354691,722.370117 219.104721,720.118835 
z"/>
<path fill="#000000" opacity="1.000000" stroke="none" 
	d="
M175.636002,678.615234 
	C184.445419,671.494263 192.981216,664.599792 202.090683,657.241943 
	C196.712906,650.467041 191.508682,644.045105 186.476837,637.490784 
	C184.948517,635.500000 181.446533,633.553467 183.091446,630.949646 
	C184.857574,628.154053 188.176559,626.280457 190.982437,624.229614 
	C192.112946,623.403381 193.206879,624.483215 193.941849,625.399780 
	C203.404709,637.200500 212.843109,649.020874 222.560898,661.178101 
	C216.622299,667.447388 209.725662,671.859192 203.511658,677.037781 
	C193.916962,685.033569 183.998276,692.639832 174.362015,700.587036 
	C171.899582,702.617981 170.293823,702.838623 168.251480,700.182312 
	C159.180511,688.384827 159.153824,692.173706 169.895370,683.209839 
	C171.685883,681.715637 173.538498,680.295837 175.636002,678.615234 
z"/>
<path fill="#000000" opacity="1.000000" stroke="none" 
	d="
M643.028198,562.094360 
	C629.107666,559.195740 615.583252,556.431641 602.082764,553.555115 
	C598.332214,552.755981 596.636108,553.968689 595.973389,557.840027 
	C594.711609,565.211060 592.763123,572.466064 591.546509,579.842896 
	C590.888428,583.833252 589.115417,584.778259 585.419861,584.043518 
	C577.417419,582.452454 577.256592,582.331299 578.870667,574.414429 
	C581.227783,562.852722 583.712097,551.314453 585.865356,539.714844 
	C586.685303,535.297852 588.340393,534.139587 592.934204,535.156738 
	C611.122009,539.184265 629.388184,542.871094 647.677612,546.414490 
	C651.665039,547.187012 652.803528,548.744019 651.527222,552.478699 
	C650.994507,554.037537 650.629822,555.719116 650.564026,557.359924 
	C650.365417,562.308655 648.008423,563.824890 643.028198,562.094360 
z"/>
</svg>