<?xml version="1.0" standalone="no"?>
<!DOCTYPE svg PUBLIC "-//W3C//DTD SVG 20010904//EN"
 "http://www.w3.org/TR/2001/REC-SVG-20010904/DTD/svg10.dtd">
<svg version="1.0" xmlns="http://www.w3.org/2000/svg"
 width="300.000000pt" height="424.000000pt" viewBox="0 0 300.000000 424.000000"
 preserveAspectRatio="xMidYMid meet">
<metadata>
Created by potrace 1.10, written by Peter Selinger 2001-2011
</metadata>
<g transform="translate(0.000000,424.000000) scale(0.100000,-0.100000)"
fill="#000000" stroke="none">
<path d="M1331 3273 c-24 -5 -24 -5 -18 -109 2 -57 2 -104 -2 -104 -3 0 -32
36 -64 80 -51 70 -60 78 -80 71 -20 -8 -22 -16 -27 -111 l-5 -103 -59 77 c-53
69 -62 77 -85 71 -14 -4 -27 -8 -29 -10 -2 -2 36 -52 83 -113 85 -108 87 -110
115 -99 29 11 29 11 32 109 l3 98 55 -75 c30 -41 58 -75 62 -75 4 0 19 5 33
10 l27 10 -4 140 c-2 77 -5 139 -8 139 -3 -1 -16 -4 -29 -6z"/>
<path d="M1460 3143 l0 -133 105 0 c98 0 105 1 105 20 0 18 -7 20 -75 20 l-75
0 0 35 0 35 65 0 c63 0 65 1 65 26 0 26 -1 26 -62 23 l-63 -4 -3 33 -3 32 76
0 c71 0 76 1 73 21 -3 19 -10 20 -106 22 l-102 2 0 -132z"/>
<path d="M1750 3218 c-6 -24 -23 -80 -37 -126 -13 -46 -23 -85 -21 -86 6 -4
114 -35 146 -41 51 -11 88 2 102 36 10 24 10 33 -4 54 -15 23 -15 25 9 49 14
14 25 34 25 46 0 27 -41 68 -77 75 -15 4 -48 13 -72 21 -25 8 -48 14 -52 14
-5 0 -13 -19 -19 -42z m159 -63 c6 -32 -23 -45 -71 -30 -48 14 -53 21 -39 58
l10 27 48 -18 c31 -11 49 -24 52 -37z m-52 -80 c21 -9 33 -21 33 -33 0 -33
-21 -42 -70 -30 -58 14 -62 18 -54 57 7 36 18 36 91 6z"/>
<path d="M2107 2986 l-85 -103 42 -35 c82 -67 102 -78 151 -78 60 0 98 27 120
84 28 72 -2 126 -116 215 l-26 20 -86 -103z m149 -10 c43 -43 46 -87 7 -128
-35 -37 -78 -37 -126 0 -20 15 -36 30 -37 34 0 10 102 128 113 128 5 0 24 -15
43 -34z"/>
<path d="M776 2983 c-16 -22 -18 -37 -13 -109 2 -46 2 -84 -1 -84 -4 0 -25 18
-47 40 -41 40 -41 41 -60 20 -18 -19 -18 -21 1 -41 10 -12 54 -53 97 -91 76
-69 78 -70 97 -53 20 18 20 19 -5 45 -15 15 -25 38 -25 54 l0 29 67 -6 c60 -6
70 -4 90 15 13 12 23 24 23 27 0 3 -39 7 -87 9 -48 2 -90 5 -95 8 -4 3 -8 24
-9 47 0 23 -3 58 -7 78 l-7 37 -19 -25z"/>
<path d="M2355 2774 c-55 -37 -104 -70 -108 -74 -5 -4 17 -46 48 -94 50 -76
59 -85 73 -74 10 7 19 13 20 14 2 2 -15 27 -37 58 -23 30 -41 59 -41 64 0 10
49 46 55 40 1 -2 17 -27 35 -56 28 -46 34 -51 49 -40 9 7 18 13 20 15 2 1 -13
25 -33 53 -20 27 -36 52 -36 55 0 2 13 11 28 19 l28 14 37 -59 c34 -53 39 -58
58 -49 11 6 19 14 17 18 -9 19 -104 161 -108 161 -3 1 -50 -29 -105 -65z"/>
<path d="M566 2710 c-79 -70 -71 -191 16 -236 95 -49 208 24 208 136 0 37 -2
41 -22 38 -19 -2 -24 -11 -29 -47 -6 -48 -44 -91 -80 -91 -33 0 -79 29 -89 56
-17 43 -11 66 26 100 26 25 34 39 29 54 -9 27 -18 25 -59 -10z"/>
<path d="M2565 2585 c-22 -20 -72 -64 -112 -97 -68 -58 -71 -62 -61 -89 5 -16
17 -29 26 -30 10 0 73 -6 142 -13 69 -7 126 -12 128 -11 2 2 0 14 -3 27 -6 23
-13 26 -67 32 -34 3 -81 6 -104 6 -24 0 -44 4 -44 9 0 7 62 64 143 131 5 4 5
22 0 39 l-8 32 -40 -36z"/>
<path d="M558 2392 c-127 -32 -137 -37 -142 -61 -3 -18 0 -30 12 -39 40 -32
218 -152 225 -152 4 0 7 14 7 30 0 23 -6 33 -25 42 -14 6 -25 14 -24 17 0 3 6
33 13 66 11 54 15 60 44 67 18 5 32 15 32 22 0 8 3 21 6 30 7 19 18 21 -148
-22z m27 -79 c-11 -65 -11 -65 -60 -32 -48 33 -51 49 -7 49 15 0 34 5 42 10
26 17 31 11 25 -27z"/>
<path d="M2536 2263 l-109 -4 7 -52 c3 -29 6 -76 6 -105 0 -49 2 -53 22 -50
20 3 21 8 19 76 l-2 72 35 0 36 0 0 -60 c0 -58 1 -60 26 -60 l26 0 -7 65 -7
65 36 0 36 0 0 -70 c0 -69 0 -70 26 -70 l27 0 -7 77 c-3 42 -6 87 -6 100 0 19
-5 23 -27 21 -16 -1 -77 -4 -137 -5z"/>
<path d="M393 2127 c3 -8 8 -60 12 -115 7 -100 8 -102 33 -102 23 0 24 2 19
44 l-6 43 72 7 c141 13 147 15 147 48 0 27 -3 29 -27 24 -16 -3 -53 -8 -83
-11 -30 -3 -67 -8 -81 -11 -25 -5 -27 -2 -33 40 -6 41 -10 46 -33 46 -17 0
-23 -4 -20 -13z"/>
<path d="M2417 1942 c-22 -112 -22 -112 7 -112 21 0 24 6 30 53 10 80 10 80
102 61 141 -29 131 -29 138 1 4 15 6 28 4 29 -2 2 -57 13 -123 26 -66 12 -125
24 -131 27 -6 2 -17 -33 -27 -85z"/>
<path d="M574 1896 c-10 -17 -15 -44 -14 -83 2 -82 2 -83 -19 -83 -29 0 -46
28 -46 76 0 42 -1 44 -29 44 -28 0 -29 -1 -23 -45 13 -93 62 -145 120 -129 43
13 58 46 50 114 -4 45 -2 58 12 70 27 23 55 -19 55 -81 0 -27 4 -49 9 -49 5 0
16 -3 25 -6 13 -5 16 2 16 40 0 89 -45 156 -105 156 -26 0 -39 -6 -51 -24z"/>
<path d="M2392 1780 c-97 -60 -98 -205 -2 -255 89 -46 189 13 205 120 16 109
-109 192 -203 135z m110 -51 c28 -15 50 -72 39 -102 -12 -32 -58 -67 -87 -67
-12 0 -36 12 -53 26 -60 50 -29 154 45 154 20 0 44 -5 56 -11z"/>
<path d="M776 1644 c-20 -14 -18 -19 33 -82 21 -27 31 -46 24 -50 -29 -19
-163 -128 -163 -133 0 -3 9 -14 19 -23 19 -17 23 -15 103 51 135 111 126 98
96 130 -14 16 -40 49 -59 74 -31 42 -37 45 -53 33z"/>
<path d="M2231 1557 l-22 -25 25 -20 c14 -11 26 -23 26 -27 0 -4 -16 -25 -35
-48 -46 -54 -48 -105 -6 -148 48 -48 81 -39 172 47 l56 52 -97 97 -96 96 -23
-24z m108 -143 l34 -35 -29 -30 c-37 -39 -84 -38 -98 2 -7 22 -4 33 20 63 16
20 31 36 34 36 3 0 21 -16 39 -36z"/>
<path d="M903 1473 c-6 -16 10 -34 70 -78 l27 -20 -69 -86 c-66 -82 -69 -88
-52 -103 25 -22 36 -20 56 11 10 15 45 60 78 101 33 41 56 77 51 82 -30 28
-139 110 -146 110 -5 0 -11 -7 -15 -17z"/>
<path d="M1983 1352 c-83 -47 -90 -55 -74 -80 6 -11 21 -6 64 22 31 20 60 36
65 36 10 0 46 -50 40 -54 -2 -2 -25 -16 -53 -31 -27 -16 -51 -30 -53 -31 -2
-1 1 -12 7 -23 11 -20 12 -20 65 14 l54 34 17 -25 c20 -32 12 -42 -55 -74 -54
-25 -56 -28 -37 -52 11 -14 21 -11 94 31 45 25 82 50 83 54 0 4 -24 49 -53
100 -29 51 -56 100 -60 110 -3 9 -10 17 -14 17 -4 0 -45 -22 -90 -48z"/>
<path d="M1089 1296 c-22 -22 -96 -183 -87 -191 1 -2 14 -6 28 -10 23 -6 27
-1 54 69 31 82 50 106 85 106 68 0 77 -43 31 -152 -16 -38 -30 -73 -30 -77 0
-4 11 -13 25 -19 23 -11 27 -9 34 11 5 12 20 51 35 86 30 75 33 112 10 147
-38 57 -141 74 -185 30z"/>
<path d="M1837 1283 c-14 -4 -16 -12 -11 -42 6 -35 4 -39 -21 -45 -26 -7 -60
13 -86 48 -4 4 -22 5 -40 1 l-34 -8 38 -32 c41 -35 44 -46 22 -65 -21 -18 -19
-73 5 -103 11 -14 34 -28 51 -32 39 -9 181 22 177 38 -2 7 -16 65 -33 130 -16
64 -34 116 -40 116 -5 -1 -18 -3 -28 -6z m22 -160 c16 -58 14 -61 -34 -69 -56
-8 -77 7 -73 50 2 25 9 33 38 43 53 18 58 16 69 -24z"/>
<path d="M1470 1197 c0 -24 -2 -46 -5 -49 -3 -2 -31 -1 -62 3 -41 6 -60 4 -65
-4 -17 -27 -6 -35 57 -42 62 -6 65 -8 65 -33 0 -45 -9 -49 -80 -42 -73 8 -80
6 -80 -19 0 -15 15 -20 101 -30 56 -7 102 -11 103 -9 1 2 8 57 15 123 7 66 14
125 14 130 1 6 -13 11 -30 13 -33 3 -33 3 -33 -41z"/>
</g>
</svg>
