<?xml version="1.0" standalone="no"?>
<!DOCTYPE svg PUBLIC "-//W3C//DTD SVG 20010904//EN"
 "http://www.w3.org/TR/2001/REC-SVG-20010904/DTD/svg10.dtd">
<svg version="1.0" xmlns="http://www.w3.org/2000/svg"
 width="300.000000pt" height="424.000000pt" viewBox="0 0 300.000000 424.000000"
 preserveAspectRatio="xMidYMid meet">
<metadata>
Created by potrace 1.10, written by Peter Selinger 2001-2011
</metadata>
<g transform="translate(0.000000,424.000000) scale(0.100000,-0.100000)"
fill="#000000" stroke="none">
<path d="M1526 3153 c-3 -15 -8 -64 -11 -109 l-7 -81 73 -6 c40 -3 75 -4 78
-2 11 11 -13 19 -70 23 -47 4 -59 8 -55 19 3 8 6 26 6 40 0 24 1 24 55 18 34
-5 55 -4 55 3 0 10 -46 22 -87 22 -21 0 -24 4 -19 23 3 12 6 28 6 36 0 11 13
13 60 8 47 -4 60 -2 60 9 0 10 -14 14 -54 14 -30 0 -61 3 -69 6 -11 4 -17 -3
-21 -23z"/>
<path d="M1307 3159 c-27 -4 -50 -9 -52 -11 -1 -2 5 -49 13 -106 l16 -103 50
6 c55 8 95 25 115 48 21 26 24 81 7 115 -26 49 -69 64 -149 51z m110 -41 c58
-62 17 -140 -77 -149 l-35 -4 -12 79 c-7 44 -10 83 -7 88 3 4 29 8 58 8 42 0
57 -5 73 -22z"/>
<path d="M1721 3137 c3 -69 26 -211 35 -214 9 -3 164 158 164 171 0 22 -34 -5
-90 -70 l-65 -76 -9 101 c-6 69 -13 102 -22 105 -9 4 -14 -2 -13 -17z"/>
<path d="M988 3044 c-27 -13 -48 -27 -48 -31 0 -6 88 -173 95 -181 5 -6 89 40
113 61 12 11 22 31 22 43 0 26 -24 54 -47 54 -10 0 -13 6 -9 16 4 9 -1 27 -9
40 -20 31 -56 30 -117 -2z m100 -25 c3 -22 -4 -31 -43 -52 l-45 -26 -15 29
c-20 38 -20 37 23 60 49 26 76 22 80 -11z m53 -65 c17 -21 3 -43 -47 -71 -21
-13 -42 -23 -45 -23 -3 0 -12 15 -21 33 l-16 32 42 22 c49 27 69 28 87 7z"/>
<path d="M1921 2976 c-28 -46 -51 -88 -51 -92 0 -8 111 -74 124 -74 19 0 -1
22 -41 46 -27 15 -49 28 -51 30 -5 3 27 64 34 64 3 0 26 -12 50 -26 25 -15 48
-23 52 -19 7 7 -8 20 -57 47 -36 20 -38 28 -12 59 l18 23 51 -32 c32 -19 54
-27 58 -21 3 6 4 11 3 13 -11 8 -119 66 -123 66 -3 0 -27 -38 -55 -84z"/>
<path d="M810 2920 l-55 -49 41 -43 c22 -24 54 -59 70 -79 l31 -36 23 19 c69
56 92 80 83 89 -5 5 -24 -7 -48 -31 -21 -22 -44 -40 -50 -40 -6 0 -20 12 -32
28 l-20 27 38 30 c21 17 38 36 39 43 0 20 -12 14 -53 -25 l-38 -38 -24 29 -24
30 45 39 c41 36 55 58 37 57 -5 -1 -33 -23 -63 -50z"/>
<path d="M2087 2862 l-67 -77 51 -47 c29 -26 57 -44 62 -41 6 3 -11 24 -36 46
l-47 39 65 73 c56 63 69 86 46 85 -3 -1 -36 -35 -74 -78z"/>
<path d="M691 2808 c0 -7 24 -42 54 -78 29 -36 52 -66 50 -68 -1 -2 -39 6 -83
17 -44 12 -85 21 -91 21 -21 0 -10 -22 44 -90 30 -38 55 -71 55 -73 0 -2 -39
7 -87 19 -55 15 -91 20 -97 14 -11 -11 -9 -12 116 -43 73 -19 98 -22 101 -12
3 6 -19 43 -49 80 -30 37 -53 70 -50 72 2 2 41 -5 86 -17 52 -13 86 -18 92
-12 6 6 -16 41 -58 93 -69 86 -84 101 -83 77z"/>
<path d="M2240 2773 c-28 -10 -69 -56 -75 -83 -13 -59 51 -140 110 -140 57 0
121 78 108 131 -18 68 -86 113 -143 92z m95 -49 c53 -57 16 -144 -60 -144 -49
0 -85 36 -85 85 0 78 93 115 145 59z"/>
<path d="M2350 2525 c-46 -18 -86 -38 -88 -45 -3 -9 2 -11 19 -6 44 13 52 11
62 -19 15 -47 46 -75 82 -75 61 0 82 58 49 140 -9 22 -21 40 -28 39 -6 -1 -49
-16 -96 -34z m109 -26 c18 -52 14 -78 -15 -91 -32 -15 -53 -3 -76 43 -23 46
-23 44 20 62 53 22 59 21 71 -14z"/>
<path d="M480 2409 c0 -6 22 -43 50 -82 27 -39 48 -72 47 -73 -2 -2 -27 3 -57
11 -67 18 -70 18 -70 2 0 -19 207 -58 214 -40 4 9 -3 13 -19 13 -23 0 -65 34
-65 52 0 4 24 22 54 38 30 17 57 37 60 45 7 21 5 20 -65 -21 l-62 -37 -28 34
c-16 19 -31 42 -34 52 -7 19 -25 24 -25 6z"/>
<path d="M2392 2317 l-74 -10 6 -31 c2 -17 8 -50 11 -73 11 -70 28 -52 20 21
l-7 64 35 4 c39 4 47 -6 47 -69 0 -22 5 -33 15 -33 14 0 14 13 -1 88 -3 16 0
22 13 22 10 0 27 3 39 6 19 5 22 0 27 -51 3 -32 8 -60 11 -63 14 -13 17 11 9
70 l-8 63 -35 1 c-19 1 -68 -3 -108 -9z"/>
<path d="M618 2184 c-4 -3 -1 -16 7 -28 24 -33 18 -74 -14 -107 -58 -58 -141
-23 -141 60 0 22 5 43 10 46 15 9 12 25 -4 25 -8 0 -20 -16 -26 -35 -24 -74
27 -145 104 -145 64 1 106 45 106 113 0 35 -29 84 -42 71z"/>
<path d="M2340 2116 c0 -12 10 -16 36 -16 29 0 35 -3 30 -16 -3 -9 -6 -26 -6
-38 0 -16 -11 -29 -35 -42 -19 -10 -35 -25 -35 -32 0 -10 9 -9 36 7 l36 21 20
-25 c14 -18 29 -25 52 -25 48 0 69 29 74 99 l4 59 -78 7 c-44 3 -91 9 -106 11
-21 4 -28 2 -28 -10z m187 -74 c-5 -49 -28 -75 -62 -70 -29 4 -49 48 -41 89
l6 34 51 -4 51 -3 -5 -46z"/>
<path d="M570 1934 c-47 -40 -85 -78 -85 -85 0 -9 36 -19 105 -31 134 -22 136
-22 120 -3 -7 8 -23 15 -36 15 -19 0 -25 9 -39 57 l-17 57 28 23 c18 14 25 26
19 32 -6 5 -42 -19 -95 -65z m46 -49 c12 -50 14 -49 -60 -39 l-48 7 44 38 c23
21 45 38 48 39 3 0 10 -20 16 -45z"/>
<path d="M2290 1855 c0 -8 9 -15 20 -15 11 0 20 7 20 15 0 8 -9 15 -20 15 -11
0 -20 -7 -20 -15z"/>
<path d="M660 1710 c-41 -22 -80 -38 -87 -36 -7 3 -15 17 -19 31 -3 14 -13 25
-21 25 -8 0 -13 -3 -11 -7 28 -62 81 -153 88 -153 13 0 13 6 -6 41 -8 17 -14
32 -12 34 2 1 40 21 86 44 45 23 80 46 77 51 -9 15 -13 13 -95 -30z"/>
<path d="M2225 1696 c-30 -31 -41 -70 -26 -102 15 -34 151 -120 151 -96 0 5
-29 29 -65 52 -73 47 -83 66 -60 110 23 45 56 44 132 -6 54 -35 78 -43 71 -23
-6 19 -129 89 -155 89 -13 0 -35 -11 -48 -24z"/>
<path d="M740 1630 c-25 -25 -25 -27 0 -91 21 -52 16 -79 -15 -79 -17 0 -65
57 -65 76 0 8 -4 14 -10 14 -20 0 -9 -40 21 -75 35 -39 67 -45 92 -17 21 23
21 36 1 89 -19 48 -14 73 15 73 23 0 61 -44 61 -71 0 -23 18 -35 26 -16 12 32
-56 117 -92 117 -8 0 -23 -9 -34 -20z"/>
<path d="M2115 1560 c-4 -6 -5 -12 -4 -13 2 -2 37 -33 77 -70 68 -63 92 -78
92 -58 0 16 -159 151 -165 141z"/>
<path d="M2070 1548 c0 -18 98 -259 111 -272 24 -26 14 12 -37 135 -55 133
-74 168 -74 137z"/>
<path d="M926 1491 c-4 -5 14 -24 39 -42 25 -18 45 -36 45 -41 0 -4 -25 -42
-55 -82 -34 -47 -50 -76 -42 -79 6 -2 40 34 74 81 l62 85 -22 17 c-80 60 -96
70 -101 61z"/>
<path d="M1921 1394 c-20 -17 -31 -35 -31 -52 0 -32 77 -165 91 -156 6 3 -1
25 -18 52 -55 95 -57 100 -39 127 17 26 56 41 81 31 8 -3 27 -26 43 -52 37
-64 59 -90 67 -82 8 8 -45 100 -78 136 -28 31 -77 29 -116 -4z"/>
<path d="M1056 1392 c-3 -5 18 -20 47 -33 29 -13 53 -24 55 -25 2 -1 -16 -40
-40 -87 -23 -48 -39 -89 -35 -93 12 -12 23 5 66 99 l40 87 -59 30 c-66 33 -67
33 -74 22z"/>
<path d="M1834 1352 c-6 -4 -19 -31 -28 -60 -19 -55 -19 -55 -71 -16 -45 34
-131 26 -96 -9 8 -8 14 -6 24 7 12 16 16 15 57 -15 25 -17 49 -35 53 -39 4 -4
-1 -31 -12 -61 -25 -64 -24 -59 -7 -59 9 0 19 20 26 50 7 28 15 50 19 50 4 0
26 -14 49 -31 23 -17 46 -27 52 -24 7 4 -10 22 -39 42 -28 20 -51 39 -51 43 0
4 9 33 20 65 21 61 21 68 4 57z"/>
<path d="M1242 1292 c-12 -12 -26 -40 -32 -64 -6 -24 -15 -57 -20 -75 -8 -30
-5 -43 11 -43 4 0 13 30 20 67 17 86 43 118 86 109 52 -12 59 -28 45 -105 -6
-37 -14 -75 -18 -84 -4 -11 -1 -17 8 -17 10 0 20 24 31 75 23 106 6 142 -71
152 -31 4 -44 1 -60 -15z"/>
<path d="M1545 1280 c-4 -6 -5 -27 -3 -48 l3 -37 -50 0 c-67 0 -69 -20 -2 -21
l52 -1 3 -41 3 -42 -65 0 c-37 0 -66 -4 -66 -10 0 -6 32 -10 75 -10 l75 0 0
110 c0 100 -7 129 -25 100z"/>
</g>
</svg>
