<?xml version="1.0" standalone="no"?>
<svg xmlns:xlink="http://www.w3.org/1999/xlink" id="wave" style="transform:rotate(0deg); transition: 0.3s" viewBox="0 0 1440 180" version="1.1" xmlns="http://www.w3.org/2000/svg"><defs><linearGradient id="sw-gradient-0" x1="0" x2="0" y1="1" y2="0"><stop stop-color="rgba(239, 68, 68, 1)" offset="0%"/><stop stop-color="rgba(255, 179, 11, 1)" offset="100%"/></linearGradient></defs><path style="transform:translate(0, 0px); opacity:1" fill="url(#sw-gradient-0)" d="M0,36L30,36C60,36,120,36,180,48C240,60,300,84,360,102C420,120,480,132,540,126C600,120,660,96,720,72C780,48,840,24,900,24C960,24,1020,48,1080,57C1140,66,1200,60,1260,75C1320,90,1380,126,1440,129C1500,132,1560,102,1620,78C1680,54,1740,36,1800,48C1860,60,1920,102,1980,99C2040,96,2100,48,2160,30C2220,12,2280,24,2340,30C2400,36,2460,36,2520,57C2580,78,2640,120,2700,120C2760,120,2820,78,2880,72C2940,66,3000,96,3060,93C3120,90,3180,54,3240,45C3300,36,3360,54,3420,69C3480,84,3540,96,3600,84C3660,72,3720,36,3780,30C3840,24,3900,48,3960,72C4020,96,4080,120,4140,135C4200,150,4260,156,4290,159L4320,162L4320,180L4290,180C4260,180,4200,180,4140,180C4080,180,4020,180,3960,180C3900,180,3840,180,3780,180C3720,180,3660,180,3600,180C3540,180,3480,180,3420,180C3360,180,3300,180,3240,180C3180,180,3120,180,3060,180C3000,180,2940,180,2880,180C2820,180,2760,180,2700,180C2640,180,2580,180,2520,180C2460,180,2400,180,2340,180C2280,180,2220,180,2160,180C2100,180,2040,180,1980,180C1920,180,1860,180,1800,180C1740,180,1680,180,1620,180C1560,180,1500,180,1440,180C1380,180,1320,180,1260,180C1200,180,1140,180,1080,180C1020,180,960,180,900,180C840,180,780,180,720,180C660,180,600,180,540,180C480,180,420,180,360,180C300,180,240,180,180,180C120,180,60,180,30,180L0,180Z"/></svg>