<svg version="1.1" id="Layer_1" xmlns="http://www.w3.org/2000/svg" xmlns:xlink="http://www.w3.org/1999/xlink" x="0px" y="0px"
	 width="100%" viewBox="0 0 720 1024" enable-background="new 0 0 720 1024" xml:space="preserve">
<path fill="#000000" opacity="1.000000" stroke="none" 
	d="
M721.000000,528.531372 
	C719.670959,527.901550 719.088684,528.578186 718.452148,529.871399 
	C715.510803,535.847351 712.230957,541.543030 706.454285,545.396240 
	C705.337158,546.141418 704.677307,547.788879 704.139587,549.151489 
	C700.341797,558.774841 694.587463,565.892639 683.188049,566.154541 
	C681.430054,566.194946 679.995361,567.166687 679.056213,568.650208 
	C672.105530,579.631042 667.522034,591.493713 666.119263,604.462036 
	C665.511108,610.084290 665.046997,615.737549 664.870972,621.387695 
	C664.551208,631.651428 660.675110,640.416138 654.328796,648.287598 
	C651.557434,651.724976 650.176270,655.802917 649.065552,660.047119 
	C646.499878,669.850342 643.910522,679.550476 639.306824,688.794128 
	C633.959106,699.531616 630.626282,711.026611 631.923462,723.488220 
	C632.891357,732.785828 636.596252,740.680847 641.824097,748.192017 
	C646.538330,754.965088 643.388184,764.067322 635.663086,767.097656 
	C633.818787,767.821106 631.944519,768.643494 630.344971,769.785767 
	C622.619934,775.302734 614.019043,778.002930 604.579468,777.915955 
	C600.006226,777.873840 595.979004,779.317749 592.555237,782.101196 
	C588.023315,785.785400 583.019592,787.813782 577.253174,788.850769 
	C571.214844,789.936646 565.338318,791.972229 559.431396,793.728455 
	C543.412598,798.491272 528.787109,797.179260 516.735107,784.208435 
	C515.221863,782.579956 513.340759,781.320129 511.198822,780.972473 
	C503.665649,779.749512 498.545044,773.759705 491.657898,771.296448 
	C490.720764,770.961243 489.917480,770.273254 490.076599,768.908386 
	C501.585297,766.089600 510.214233,757.807800 520.521484,752.674011 
	C523.315002,751.282593 525.918213,749.372009 529.016418,748.400879 
	C533.148376,747.105469 535.098938,742.434082 533.102417,738.591187 
	C529.648743,731.943726 526.757141,725.074158 522.617065,718.677734 
	C517.929138,711.434753 513.508789,703.839417 510.202972,695.696350 
	C508.739685,692.091919 506.104401,688.899170 503.680115,685.768188 
	C501.574524,683.048889 498.021637,683.647949 495.862793,684.807800 
	C489.605988,688.169189 483.236511,691.354248 477.539062,695.815369 
	C473.573730,698.920166 468.589874,700.724304 464.060822,703.109070 
	C461.240967,704.593872 458.278564,705.875061 456.017944,708.210815 
	C455.373596,708.876587 454.684082,709.270508 453.850098,709.166504 
	C449.168671,708.582703 445.196594,710.619080 441.018829,712.246094 
	C436.445129,714.027222 434.775696,715.933838 436.653503,720.195740 
	C438.229034,723.771606 437.838654,727.669800 440.238373,731.853699 
	C434.607391,731.794189 429.740356,734.514954 425.349976,729.526917 
	C422.566895,726.364929 418.635590,724.343994 416.044678,720.826965 
	C414.270294,718.418518 408.012360,718.214355 404.929932,720.163635 
	C404.120483,720.675415 403.498474,721.678955 402.648224,721.893799 
	C400.216400,722.507996 397.000702,721.439392 396.107758,725.071045 
	C395.666901,726.864014 398.658234,732.557922 400.765533,734.303589 
	C396.460754,734.656494 392.781555,732.846924 392.128510,729.661011 
	C391.253876,725.393860 392.550873,722.279358 397.130585,720.727722 
	C400.578217,719.559692 403.716553,717.506775 407.122620,716.182068 
	C414.469818,713.324646 418.125275,714.337646 422.245392,720.874329 
	C424.154877,723.903870 426.346863,724.833862 429.832825,724.305420 
	C430.892029,719.794739 427.777252,718.285706 424.767792,716.955566 
	C422.228424,715.833313 419.667206,714.942688 420.096832,711.453979 
	C420.551300,707.763611 422.180420,704.885498 425.690796,703.164612 
	C428.707428,701.685913 430.942871,702.435547 433.302643,704.677124 
	C436.853973,708.050476 439.428467,707.499817 440.374207,702.900330 
	C441.362152,698.095642 444.488739,696.211243 448.585266,695.381104 
	C452.995239,694.487427 456.199799,692.371521 458.165833,688.258667 
	C462.538696,679.111023 471.600830,679.171448 479.635773,678.237610 
	C484.755707,677.642456 486.117676,673.512329 489.352509,671.234314 
	C493.060852,668.622864 494.770081,665.723938 493.203796,661.122559 
	C492.374084,658.685059 493.645844,656.541138 495.691711,655.046509 
	C501.494720,650.806885 512.655579,647.086853 519.438171,653.973206 
	C522.110840,656.686707 525.277222,656.035095 526.930115,652.074402 
	C528.153442,649.142883 529.593384,646.374207 531.667603,643.904846 
	C534.687012,640.310364 538.076111,637.723389 543.071350,637.691162 
	C546.688538,637.667847 548.571106,636.257874 548.582336,631.916931 
	C548.597107,626.215942 548.043518,621.022461 544.290771,616.480469 
	C542.486328,614.296570 542.935974,611.809814 543.852356,609.364990 
	C545.556946,604.817566 545.094421,600.316223 544.148499,595.622559 
	C542.408386,586.988586 540.877380,578.289856 541.110535,569.402893 
	C541.389160,558.786316 547.179077,550.556519 553.089966,542.526733 
	C555.431763,539.345520 557.246826,536.230530 558.040833,532.372742 
	C559.520325,525.184692 561.051941,518.002014 566.067261,512.167236 
	C567.599670,510.384369 569.112305,508.794189 571.198120,507.563538 
	C574.584900,505.565308 576.366333,502.354370 575.941467,498.325562 
	C575.546082,494.576385 573.592834,492.421753 569.525330,493.432037 
	C561.068909,495.532501 554.916992,491.529846 549.807922,485.629791 
	C540.310608,474.661957 531.998108,462.722565 524.286682,450.509521 
	C518.085022,440.687561 509.605316,433.765564 500.430695,427.471832 
	C490.103577,420.387451 482.103302,411.032562 473.953583,401.831055 
	C466.562805,393.486481 459.682343,384.685638 452.695679,375.990509 
	C451.044800,373.935974 449.738617,371.567780 448.507141,369.221466 
	C446.649689,365.682404 445.579987,361.572083 443.151215,358.519501 
	C435.067078,348.359131 436.004822,336.734924 437.280548,325.155396 
	C437.852478,319.964142 437.132904,315.984589 432.654266,313.013336 
	C432.031219,312.600006 431.737000,311.691040 430.994385,310.560699 
	C433.853607,309.623840 436.255981,308.964935 438.419525,311.345367 
	C439.856262,312.926147 441.718323,312.693298 443.535034,312.696320 
	C447.867889,312.703522 452.200836,312.703339 456.533630,312.684540 
	C465.069580,312.647522 472.778107,305.101593 472.597382,296.619781 
	C472.501495,292.118347 473.901398,287.414337 470.291931,283.249634 
	C468.820160,281.551422 471.265564,279.550201 472.496368,278.180664 
	C482.721954,266.802368 479.277222,251.709991 465.309937,245.442490 
	C458.398712,242.341232 450.397003,242.462448 444.099670,238.913635 
	C439.114166,236.104080 433.141968,238.128586 428.744629,233.882202 
	C427.095367,232.289627 422.928802,232.114731 422.529968,235.942963 
	C421.784180,243.102142 418.829498,249.606354 417.030518,256.418335 
	C414.240051,266.984589 412.243500,277.882904 406.952209,288.463837 
	C404.236816,283.188141 399.510040,284.326569 395.150146,284.294556 
	C388.484406,284.245575 381.817200,284.190765 375.152618,284.283936 
	C371.947784,284.328735 370.693207,282.961243 370.701721,279.794159 
	C370.710236,276.636536 371.533630,274.677216 375.161957,274.718750 
	C381.993347,274.796967 388.827972,274.620941 395.658569,274.725647 
	C398.663788,274.771759 399.920166,273.574005 399.803375,270.599548 
	C399.692322,267.771149 399.687805,264.931854 399.792938,262.103180 
	C399.950317,257.870117 397.845886,256.331512 393.956573,257.279663 
	C388.882599,258.516632 383.909607,259.257721 378.991089,256.726654 
	C378.027832,256.230957 377.072327,256.573364 376.224304,257.267670 
	C374.298309,258.844513 373.129211,256.967682 371.927612,256.102692 
	C369.956879,254.684006 370.562897,252.464340 370.945526,250.570541 
	C371.327606,248.679474 373.141846,248.767548 374.615814,248.758789 
	C382.781372,248.710205 390.956055,248.486313 399.109589,248.796616 
	C403.664215,248.969955 404.756775,247.132812 404.742615,242.958130 
	C404.699005,230.088959 404.823975,230.218231 391.893127,229.892715 
	C383.797882,229.688934 375.745239,230.399170 367.578369,228.489349 
	C363.127106,227.448410 357.822693,229.469345 353.044464,230.671417 
	C350.803284,231.235229 350.323395,233.836075 350.316864,236.106491 
	C350.259308,256.103516 350.155243,276.100677 350.205627,296.097473 
	C350.217987,301.007965 352.392334,302.877747 357.360291,303.006775 
	C360.356232,303.084625 363.353180,303.125153 366.349182,303.201324 
	C366.480225,303.204651 366.606506,303.396179 367.237518,303.906158 
	C362.121765,303.906158 357.467194,304.243561 352.885437,303.810516 
	C348.375092,303.384247 347.318176,299.052002 345.559631,295.786652 
	C344.575897,293.959930 344.691681,291.147369 341.731415,291.338593 
	C339.239227,291.499573 339.070343,293.948730 338.289368,295.741943 
	C337.515106,297.519745 336.593048,299.233215 335.933105,300.574066 
	C330.826691,279.380280 331.894379,257.604126 331.718231,235.898483 
	C331.662628,229.044922 328.718323,227.395264 322.751007,230.864883 
	C322.044403,231.275711 321.466614,232.346405 320.819489,232.354630 
	C312.710236,232.457764 314.012238,238.294022 314.043884,243.332092 
	C314.096252,251.664200 314.242767,259.996094 314.234009,268.327942 
	C314.232056,270.198181 314.878387,272.399506 312.453430,273.909271 
	C304.992340,268.560120 300.639374,260.563232 295.735016,253.180664 
	C289.582428,243.919083 283.616150,242.552017 274.589294,249.272034 
	C272.589050,250.761093 272.929565,252.775986 272.944275,254.704819 
	C273.024231,265.203217 273.184357,275.700958 273.308594,286.199005 
	C273.329956,288.004364 273.311615,289.810181 273.311615,292.563812 
	C267.631317,288.733002 264.970856,283.531769 261.865906,278.959991 
	C257.615173,272.701233 252.727692,266.956696 248.390701,260.791626 
	C246.988358,258.798187 244.751160,259.542847 242.040848,258.294220 
	C248.129333,255.464294 248.223557,250.464737 248.186096,245.207794 
	C248.166595,242.472183 250.145523,240.609833 252.921860,240.154175 
	C256.926788,239.496857 261.053436,239.965622 263.124725,243.697540 
	C265.644836,248.238083 267.892059,248.379379 272.206207,245.847412 
	C277.894226,242.509094 284.222046,240.270218 290.984131,239.948700 
	C294.549988,239.779129 295.290314,238.082336 293.975922,235.017502 
	C293.070374,232.905884 292.621490,230.690506 294.760498,229.121140 
	C297.170868,227.352707 299.622070,228.680099 300.947052,230.482971 
	C304.997223,235.993866 309.008636,233.895447 313.210052,230.986633 
	C316.754547,228.532593 320.987030,227.489761 324.719055,225.295990 
	C327.288513,223.785583 330.967072,224.129272 333.710541,226.297775 
	C335.553436,227.754440 337.254974,227.788101 339.212799,226.641708 
	C341.486725,225.310165 343.898315,224.973495 346.395813,226.079285 
	C349.393677,227.406662 351.373871,224.178772 354.443207,224.521393 
	C368.025848,226.037689 381.687897,226.089874 395.347290,225.894318 
	C397.329224,225.865936 399.822906,225.472900 401.215271,226.463623 
	C408.254425,231.472183 414.102295,226.944183 420.382751,224.758881 
	C428.592529,221.902298 434.112579,216.693726 437.208130,208.463165 
	C438.707642,204.476166 442.235657,201.934448 446.469849,200.642929 
	C460.508942,196.360703 474.894928,194.618362 489.418976,196.420624 
	C498.582520,197.557724 506.240936,203.493530 514.908691,206.447220 
	C532.973755,212.603180 549.886963,221.989395 569.111389,224.938232 
	C588.182190,227.863525 606.970886,232.268707 625.698853,236.936157 
	C636.102417,239.528976 642.952759,246.714371 649.524475,254.262405 
	C655.749573,261.412292 661.254578,269.196228 667.577759,276.251831 
	C674.010010,283.429077 681.078003,290.044373 688.696777,295.991394 
	C693.052917,299.391724 697.238342,302.882202 700.352722,307.534454 
	C701.945923,309.914276 703.943726,312.371490 706.903076,312.575958 
	C713.714233,313.046478 718.540771,315.749603 720.704102,322.822876 
	C721.000000,391.354218 721.000000,459.708466 721.000000,528.531372 
M627.318176,523.914795 
	C626.158691,523.909546 624.961243,523.713196 623.846924,523.934875 
	C620.506897,524.598938 618.429810,523.678040 616.974487,520.298584 
	C614.781311,515.205750 615.053711,509.908752 614.786011,504.640564 
	C614.136536,491.859772 613.939087,494.598602 602.730164,494.327789 
	C600.749573,494.279938 599.098877,495.471985 599.180115,497.125946 
	C599.404114,501.688049 598.330078,506.425385 600.513733,512.144287 
	C601.227173,506.618317 600.424011,502.343018 602.680359,498.243835 
	C604.514404,494.911713 607.057739,495.879211 609.521057,495.819336 
	C612.081177,495.757019 612.265930,497.749146 612.292664,499.667236 
	C612.405334,507.747925 615.438232,515.571594 614.365234,523.768738 
	C614.134644,525.530212 614.729736,527.306213 616.812012,527.491638 
	C620.966492,527.861511 625.231079,528.240845 628.566162,523.579834 
	C631.182251,521.027893 630.891052,517.857117 630.336365,514.705688 
	C629.591248,510.472534 628.710815,506.292694 628.596558,501.942902 
	C628.482971,497.618866 629.728271,495.606201 634.478699,495.587067 
	C639.248596,495.567871 639.492798,498.191956 639.329102,501.656555 
	C639.250793,503.313507 639.315552,504.977173 639.315552,506.637817 
	C640.274536,503.753387 640.892883,500.805817 640.458008,497.848358 
	C640.074951,495.242401 640.429443,492.047028 635.869812,492.390717 
	C627.733276,493.003998 627.147339,493.203369 627.205688,498.623688 
	C627.296875,507.096130 628.809082,515.523010 627.318176,523.914795 
M574.003784,633.005615 
	C574.003784,633.005615 573.971680,632.976807 574.198120,633.643188 
	C575.273865,637.189758 577.905334,639.514343 580.702332,641.613892 
	C588.732361,647.641541 600.723206,646.953857 607.210938,640.190979 
	C614.633789,632.453369 615.509888,621.863708 609.386963,613.889954 
	C603.227051,605.867981 590.218750,603.021790 582.087036,607.916870 
	C573.601318,613.025024 570.142822,623.814636 574.003784,633.005615 
M549.038513,312.985046 
	C549.038513,312.985046 548.762207,312.698181 548.540039,312.125977 
	C545.726807,307.661255 541.079468,305.046783 537.593567,301.269348 
	C534.989563,298.447540 532.887146,298.387878 530.349731,301.524780 
	C523.760681,309.670441 517.030334,317.705841 510.187164,325.639221 
	C508.306610,327.819397 508.497559,329.218323 510.514465,331.021576 
	C514.493042,334.578583 518.525146,338.074829 523.221130,340.633545 
	C530.947388,344.843475 540.107727,343.455963 546.087341,337.044464 
	C552.313293,330.368927 555.687683,321.751373 549.038513,312.985046 
M566.538635,334.508759 
	C566.219360,335.091980 565.847839,335.652924 565.588257,336.261597 
	C556.163635,358.365540 531.487976,364.816284 512.717041,349.972412 
	C505.018494,343.884491 497.543427,337.514465 489.937042,331.309113 
	C487.918488,329.662354 487.191742,328.047211 489.361786,325.956940 
	C497.969727,317.665344 503.658936,306.719849 513.429932,299.469666 
	C514.334778,298.798279 515.301331,297.855530 515.643677,296.838287 
	C517.853882,290.270660 523.498962,286.172852 527.129456,280.633026 
	C528.848022,278.010529 530.996216,278.200684 533.432861,280.264160 
	C535.971130,282.413666 538.309021,284.965363 542.180969,286.669250 
	C540.385132,283.532715 538.250671,282.048553 536.147827,280.297516 
	C529.620728,274.862457 529.624207,274.486664 524.277710,280.368774 
	C518.032715,287.239349 512.181030,294.465698 506.072235,301.462219 
	C501.451416,306.754517 498.895813,313.591858 492.672302,317.800171 
	C489.734039,319.787018 488.002502,323.647614 486.366852,327.110718 
	C485.508209,328.928711 485.728180,330.303284 487.147858,331.544189 
	C494.207275,337.714478 501.275238,343.875122 508.361755,350.014282 
	C511.459564,352.697998 515.029236,354.364349 518.911804,355.803894 
	C523.638245,357.556396 528.073303,360.225403 533.197815,360.643066 
	C540.221069,361.215515 546.238647,358.324280 552.225342,354.968872 
	C560.601013,350.274536 566.196167,343.898438 567.545044,333.534088 
	C569.248596,332.169067 569.479187,330.318390 569.757446,328.250214 
	C570.438171,323.190796 567.731689,318.968994 566.869873,314.326355 
	C565.550659,307.219147 560.971008,302.556183 556.105835,297.967682 
	C556.610779,300.963501 559.305664,302.369049 560.855042,304.626526 
	C567.007568,313.590942 568.854553,323.411285 566.538635,334.508759 
M618.009460,537.413452 
	C615.532776,537.413452 613.056091,537.413452 610.579407,537.413452 
	C622.106873,541.026855 633.681763,543.283386 645.120728,546.092834 
	C652.370483,547.873352 652.279785,548.242615 650.946716,556.082153 
	C649.781860,562.932678 649.204834,563.267761 642.503601,561.877014 
	C629.167847,559.109192 615.798828,556.500000 602.478516,553.661255 
	C598.755859,552.867920 596.875549,553.858337 596.200073,557.726257 
	C594.999634,564.600342 593.561707,571.435303 592.098022,578.259766 
	C591.660706,580.298889 591.822815,583.086365 589.484863,583.845215 
	C586.360168,584.859497 583.172852,583.624451 580.447083,582.106995 
	C578.187561,580.849121 577.971252,578.387878 578.524109,575.888855 
	C579.853638,569.880127 581.278320,563.883057 582.311401,557.821106 
	C583.081543,553.302002 584.802490,548.835449 583.626709,544.044312 
	C582.648315,548.776978 581.655090,553.489319 580.141602,558.003052 
	C578.247009,563.653320 579.020508,569.714539 576.691650,575.317444 
	C574.498962,580.592651 576.584778,583.817078 582.016174,585.364197 
	C583.209473,585.704102 585.222839,585.322632 585.229309,587.728149 
	C579.391541,588.892822 573.982605,591.824829 570.071350,595.628235 
	C561.548706,603.915833 556.429199,614.376404 555.137878,626.528015 
	C554.611816,631.478699 557.114014,635.435669 558.171692,639.867249 
	C559.974243,647.419739 565.643066,652.164490 570.153381,657.757751 
	C571.246765,659.113708 573.020081,658.883850 575.219971,658.065552 
	C560.642029,648.027954 554.199341,634.638367 559.266113,618.084290 
	C564.003357,602.606873 573.943298,591.307678 591.443848,589.194031 
	C591.279114,588.335388 590.960876,587.687378 591.076904,587.129822 
	C592.900269,578.365784 595.846863,569.870667 597.035950,560.933228 
	C597.363525,558.470825 599.150452,556.581787 602.631714,556.558594 
	C610.725098,556.504700 618.025330,561.549072 626.284607,559.938782 
	C626.551514,559.886658 627.022705,560.089417 627.166626,560.318909 
	C629.175293,563.519714 632.384827,562.658569 635.272766,562.668945 
	C638.136169,562.679260 640.752563,562.944458 643.319885,564.618958 
	C646.895081,566.950867 649.560974,565.544556 651.247803,561.764587 
	C653.161560,557.476257 652.651672,552.958130 652.710938,548.488647 
	C652.757568,544.975342 650.986206,543.335388 647.478577,543.331970 
	C644.657288,543.329224 641.106750,544.174988 639.169189,542.811707 
	C635.322632,540.105164 631.389954,540.229980 627.292175,540.402588 
	C624.018738,540.540466 621.093384,540.119995 618.009460,537.413452 
M593.017395,493.446259 
	C593.333130,491.644226 593.758423,489.853546 593.945862,488.038269 
	C594.803833,479.726685 596.438782,478.137543 604.898071,477.837555 
	C616.047546,477.442169 627.203308,477.201172 638.348145,476.708160 
	C643.030518,476.501068 647.691833,475.818726 653.719482,475.216949 
	C649.512329,471.079224 645.435852,471.630554 642.549316,472.868530 
	C633.733704,476.649292 624.613403,476.383911 615.431396,476.322083 
	C606.935730,476.264832 598.440491,476.159790 589.944885,476.095428 
	C587.478943,476.076752 585.230652,476.271515 585.140381,479.653198 
	C584.887146,489.137634 584.480286,498.646484 585.892822,508.055145 
	C587.276428,517.271240 588.709534,526.403992 585.440735,535.519409 
	C585.170654,536.272583 585.220703,537.175842 585.275818,537.999084 
	C585.319824,538.656189 584.797241,539.563721 586.268860,540.177795 
	C586.287659,533.960571 590.054321,534.585510 594.254456,535.386169 
	C598.488220,536.193237 602.708435,537.796326 607.506775,536.844910 
	C605.609253,534.204224 602.667297,534.911072 600.447632,533.397278 
	C603.187866,528.691162 602.969788,523.751404 601.812317,518.765747 
	C601.236389,520.214783 601.233643,521.688416 601.236877,523.162109 
	C601.250732,529.581055 600.495605,530.364441 594.151917,530.217651 
	C592.225342,530.173157 589.814026,530.684448 589.099060,528.124695 
	C588.391541,525.591431 588.605713,523.120239 591.445862,521.734375 
	C592.927490,521.011475 593.582092,519.718689 593.774536,518.128784 
	C594.741333,510.142426 596.942322,502.117493 593.017395,493.446259 
M565.076599,715.733704 
	C564.052429,716.287170 563.019531,716.825073 562.005432,717.396423 
	C551.700073,723.203491 541.239075,721.549438 533.055725,712.813293 
	C525.579590,704.831909 524.896179,694.021667 531.067688,684.343994 
	C533.600830,680.371582 536.703796,676.969177 540.084351,673.736267 
	C546.173523,667.912903 546.120300,667.877380 540.655212,661.622620 
	C539.781738,660.622864 539.102600,659.454651 538.241150,658.443054 
	C536.543823,656.449768 535.963379,654.518372 538.254150,652.235657 
	C541.128174,654.240967 543.397461,657.009277 547.333740,657.453735 
	C547.402283,653.861023 546.244080,651.406067 543.221863,649.969543 
	C541.542236,649.171143 541.765869,647.906982 542.434204,646.630371 
	C543.225891,645.118286 544.421753,644.284180 546.083557,645.376404 
	C547.324951,646.192505 548.532715,647.106323 549.594299,648.141785 
	C557.335510,655.692505 565.029236,663.291992 572.755859,670.857788 
	C574.061096,672.135803 575.246887,673.695251 578.199890,673.983704 
	C576.033813,670.786987 573.299316,669.379456 571.454102,667.024475 
	C568.412231,663.142334 564.908569,659.421692 561.392456,656.050476 
	C557.129517,651.963135 552.646851,648.036011 548.422729,643.841797 
	C545.832520,641.269958 542.810608,641.408875 540.046875,643.810059 
	C538.677063,645.000305 537.499207,646.408752 536.165710,647.644348 
	C531.769226,651.717773 531.986877,658.095520 536.915710,661.621277 
	C538.830933,662.991272 540.542969,664.406067 542.155151,666.678589 
	C539.853210,669.584412 537.824585,672.657227 534.802551,675.030334 
	C526.489868,681.557861 520.567078,699.718933 528.100586,710.182678 
	C533.633301,717.867432 540.339111,723.756042 551.137695,722.846924 
	C558.687500,722.211426 564.688843,719.648987 570.011230,714.281860 
	C572.376282,711.896973 574.341309,708.717346 577.018066,707.161743 
	C583.274780,703.525513 585.484680,696.476990 591.115662,692.493835 
	C581.557556,698.950195 574.704285,708.325500 565.076599,715.733704 
M605.734314,432.237732 
	C603.298706,434.866089 599.896301,436.520691 597.804199,439.780731 
	C598.465942,440.141113 598.875488,440.555908 599.292786,440.563751 
	C613.793274,440.837860 627.986816,444.330231 642.478760,444.671509 
	C644.133057,444.710480 646.151978,444.433472 646.859558,446.305725 
	C648.471924,450.572174 650.400085,454.786713 650.980896,459.120178 
	C649.270996,460.374725 647.932129,460.151947 646.613159,460.016327 
	C635.529846,458.876678 624.467224,457.627594 613.324036,457.009277 
	C604.202515,456.503082 595.133118,455.043793 586.043640,453.981537 
	C579.483154,453.214874 577.338989,448.219727 575.164001,442.970459 
	C573.275879,438.413422 576.836243,436.779877 579.010925,434.268585 
	C579.655090,433.524689 581.244934,433.154785 580.249390,431.208923 
	C577.855530,433.118195 574.101196,433.785675 573.600403,437.023834 
	C572.600281,443.491547 575.302856,449.412933 578.402893,454.812042 
	C580.623657,458.679596 585.070801,456.342072 588.497314,456.624451 
	C595.907654,457.235168 603.727417,456.192230 610.669434,458.237122 
	C617.596863,460.277771 624.298950,460.599243 631.235168,460.689728 
	C635.839661,460.749786 640.488037,460.157623 644.788025,462.717041 
	C646.877563,463.960724 649.193787,464.129547 651.103516,461.913147 
	C653.105957,459.589111 653.259277,457.036407 651.840393,454.548462 
	C651.147217,453.333099 650.839050,452.184021 650.612976,450.864075 
	C649.626953,445.106567 645.203796,441.449097 639.221863,441.339325 
	C628.863342,441.149231 618.533203,440.554291 608.242065,439.314087 
	C606.834351,439.144470 605.446167,438.844269 604.891724,437.539185 
	C604.265747,436.065918 605.505981,435.407867 606.532410,434.426300 
	C611.555786,429.622314 617.968201,426.230804 621.723328,419.522858 
	C615.722107,422.967224 611.335327,427.803162 605.734314,432.237732 
M542.356323,380.149963 
	C540.535278,377.371002 537.273682,375.002319 542.271667,371.715118 
	C557.556213,361.662384 572.685730,351.368774 587.717163,340.940521 
	C591.359009,338.413971 594.405457,335.802612 598.268005,342.408600 
	C596.531067,335.592651 593.619812,333.772949 590.179382,336.247833 
	C580.144165,343.466644 569.755310,350.148010 559.431641,356.935852 
	C553.055542,361.128113 547.041565,365.868408 540.706909,370.127380 
	C536.859070,372.714386 536.030518,376.864136 539.643799,379.465424 
	C541.476013,380.784454 541.981689,382.426910 542.893799,384.165863 
	C544.763672,387.730865 546.367371,391.634644 550.882446,393.186584 
	C548.164917,389.045532 545.447388,384.904449 542.356323,380.149963 
M598.722290,588.355652 
	C598.389954,588.367676 598.043945,588.326904 597.729553,588.408264 
	C597.470642,588.475281 597.249268,588.687012 596.704224,589.024963 
	C613.692322,592.252686 625.824341,601.263611 627.716797,618.786621 
	C629.883301,638.846436 619.952942,652.932251 601.017700,661.367249 
	C604.739136,661.423035 609.534363,659.857727 612.398193,657.244751 
	C625.149292,645.610657 633.693420,632.398865 628.667053,613.952759 
	C624.790710,599.727112 613.692566,588.335999 598.722290,588.355652 
M553.969788,705.352112 
	C561.568298,703.584106 565.182800,697.056213 570.679626,691.898438 
	C565.279358,686.899841 560.210327,682.207764 554.368408,676.800354 
	C551.684509,679.701721 548.467590,683.007141 545.452271,686.487244 
	C542.446350,689.956421 540.842285,694.068542 542.716309,698.495972 
	C544.595703,702.936157 548.160645,705.545044 553.969788,705.352112 
M564.207947,379.114594 
	C567.181946,375.651581 569.290710,375.639709 571.854675,379.174896 
	C575.699341,384.475952 579.486755,389.818573 583.298523,395.143524 
	C579.269897,387.374451 575.783569,379.300751 569.629395,372.531433 
	C565.828308,375.164642 562.325195,377.591400 558.652100,380.135956 
	C559.790161,383.451630 562.449524,385.101471 564.094055,387.900360 
	C565.210815,384.681976 560.851685,382.427094 564.207947,379.114594 
M585.801270,370.235413 
	C581.928772,364.058014 588.577271,363.792969 590.584229,360.800415 
	C594.260132,363.100861 594.694763,367.635040 598.606567,370.221893 
	C591.875366,355.757782 591.109741,357.621063 581.252197,365.716156 
	C584.187988,369.928741 587.139099,374.163208 590.090210,378.397705 
	C590.398560,378.173340 590.706909,377.948975 591.015259,377.724640 
	C589.470337,375.395844 587.925415,373.067078 585.801270,370.235413 
M653.401001,491.274109 
	C653.737122,497.701599 654.073242,504.129089 654.352417,509.468567 
	C654.352417,500.647980 654.352417,490.743073 654.352417,480.838135 
	C654.030151,480.828583 653.707825,480.819031 653.385559,480.809479 
	C653.385559,483.987427 653.385559,487.165375 653.401001,491.274109 
M593.702026,661.976501 
	C591.273682,662.341797 588.617981,661.408813 585.321045,663.435181 
	C590.118958,665.077820 593.756897,665.244385 597.615906,663.730225 
	C596.802307,661.554932 595.570129,661.871948 593.702026,661.976501 
M587.365662,424.084198 
	C587.251526,425.422028 584.812866,425.873657 586.066833,428.014862 
	C589.177002,425.167755 592.162354,422.434906 595.997925,418.923767 
	C590.916870,418.453857 590.637817,423.201813 587.365662,424.084198 
M561.824829,412.039429 
	C563.023621,414.865479 563.702209,418.325867 567.680603,418.364014 
	C568.962341,418.376312 571.660156,419.297058 571.187683,415.398712 
	C567.161377,418.347748 565.442261,415.709961 563.677429,412.870941 
	C563.294617,412.255096 563.171509,410.306427 561.824829,412.039429 
M585.843689,683.623169 
	C586.821899,684.551514 587.407043,686.134033 589.775452,685.798462 
	C587.654480,683.297119 586.489258,680.497009 583.110046,679.714294 
	C583.304260,681.495667 584.520996,682.214294 585.843689,683.623169 
z"/>
<path fill="#000000" opacity="1.000000" stroke="none" 
	d="
M337.873627,744.878967 
	C334.696625,741.766418 326.134369,739.990173 322.680450,741.773438 
	C321.051117,742.614685 320.322418,744.030579 320.335114,745.866394 
	C320.348938,747.865540 320.287109,749.865173 320.296967,751.864441 
	C320.323822,757.310120 323.708984,760.639160 329.341461,760.702026 
	C333.673218,760.750427 338.006622,760.670837 342.337860,760.738464 
	C345.830017,760.792908 348.799622,762.166687 348.814240,765.984924 
	C348.839203,772.504456 347.952789,773.260986 342.298187,773.264832 
	C335.006927,773.269836 327.694305,773.876099 320.670593,770.812317 
	C317.339539,769.359314 314.444000,770.046631 313.964417,774.614258 
	C313.538605,778.670105 311.571472,782.587708 313.325500,787.401611 
	C301.008636,791.080322 289.920715,788.092285 279.341766,782.171448 
	C275.605164,792.274536 274.585480,792.829834 263.759644,791.493103 
	C255.155136,790.430664 246.214264,792.602478 237.889236,790.018127 
	C224.069824,785.728088 209.885437,782.821594 196.125549,778.408630 
	C190.679428,776.661987 185.933884,773.161011 181.938950,769.242920 
	C174.470627,761.918274 165.630981,755.988220 159.521667,747.250000 
	C158.017929,745.099060 156.035889,743.105896 153.873398,741.624634 
	C146.764847,736.755310 142.612183,730.027161 140.318390,721.879517 
	C138.749664,716.307373 135.653870,711.779236 131.206558,707.876465 
	C126.937668,704.130371 125.195221,698.885254 124.817093,693.131653 
	C124.202827,683.784790 121.198524,675.479309 114.904655,668.154602 
	C109.718300,662.118713 105.534187,655.221436 102.453171,647.765747 
	C101.122620,644.546021 100.802750,641.335022 102.098076,638.044189 
	C103.496193,634.492188 102.801682,631.361511 100.811981,628.110352 
	C96.891006,621.703491 98.932755,618.067078 106.502205,618.221619 
	C110.051361,618.294067 109.887901,615.798340 110.555435,613.443176 
	C115.790833,614.782227 118.310486,619.153198 121.931084,621.972717 
	C122.838379,622.679260 123.466148,623.807007 124.739204,623.684998 
	C131.116364,623.073730 137.958923,625.842346 143.721756,620.703491 
	C148.003204,616.885498 151.685745,612.904602 151.680450,606.709351 
	C151.673752,598.877441 151.678955,591.045227 151.751984,583.213867 
	C151.768158,581.478455 151.317551,579.317444 153.962601,578.894714 
	C155.991501,578.570496 157.259094,579.459412 158.483582,581.178467 
	C161.071304,584.811279 162.759247,588.473816 162.355942,593.150818 
	C161.970978,597.615051 161.833923,602.208679 162.460648,606.621460 
	C163.070740,610.917236 165.456299,614.539856 169.284821,616.723877 
	C171.748993,615.045593 169.929916,613.269470 170.286392,611.905457 
	C172.499420,609.357178 176.727951,612.439697 178.929871,608.197205 
	C173.680634,609.911072 169.448425,608.025818 164.668915,606.929443 
	C164.972992,599.973572 166.347198,592.976562 163.480240,586.250305 
	C162.173462,583.184387 161.259979,579.946289 158.821808,577.508545 
	C155.299606,573.987061 151.046555,574.942993 149.599945,579.701050 
	C148.563950,583.108582 148.826279,586.669495 149.401001,590.116760 
	C150.063232,594.088806 150.242081,598.065369 150.238556,602.064819 
	C150.228714,613.211121 145.736694,619.078430 135.038620,621.849792 
	C129.711411,623.229797 125.156883,620.858215 120.954086,618.218201 
	C116.590607,615.477234 114.435265,610.746033 112.194656,606.283936 
	C111.454514,604.809998 111.325638,603.059570 112.818932,601.806091 
	C114.835434,601.319519 114.980492,603.838989 116.600311,603.927490 
	C118.009064,603.343018 118.195282,601.936462 117.541794,601.051636 
	C114.811905,597.355591 115.930779,593.438416 116.582199,589.549744 
	C117.005501,587.022888 116.971703,584.675964 115.851151,582.253540 
	C114.572624,579.489624 116.136093,578.707275 119.561111,578.942871 
	C115.994431,586.763733 119.838112,593.156189 122.903748,599.710999 
	C123.832550,601.697021 124.981056,603.520874 126.732353,604.883057 
	C130.226379,607.600952 134.168762,606.609924 135.433060,602.419067 
	C136.384689,599.264526 136.978958,596.019775 136.366882,592.574524 
	C135.255264,586.317505 135.312668,579.874878 136.015106,573.665344 
	C136.703506,567.580078 140.960953,563.114563 146.720779,560.884155 
	C153.586136,558.225647 159.786560,560.315430 165.376068,564.693298 
	C170.578857,568.768372 172.906006,574.720886 175.878571,581.106445 
	C178.079178,588.574951 177.887299,595.742554 179.691162,602.550354 
	C181.887436,595.538635 178.161728,589.154785 177.894073,582.418030 
	C177.874420,581.923828 176.650757,581.477478 175.986847,581.008911 
	C175.818802,571.815552 170.082932,565.140564 163.572571,560.609497 
	C159.724609,557.931335 153.929001,554.908020 147.092148,558.463562 
	C136.122391,564.168518 133.243698,566.934814 133.361938,579.371155 
	C133.407211,584.132507 132.527924,589.022888 135.034851,593.546875 
	C135.470993,594.333984 135.254410,595.510559 135.253159,596.507141 
	C135.248947,599.868652 134.450699,603.383057 130.742004,603.713135 
	C127.176567,604.030518 125.049255,600.984131 123.813942,597.762573 
	C121.759193,592.404114 121.226746,586.818848 121.759109,581.148560 
	C122.130302,577.194885 121.270462,574.589783 116.537605,574.888550 
	C113.334999,575.090698 111.579727,571.703979 108.219376,571.283264 
	C112.750481,570.793762 112.950867,566.464539 114.969002,563.990173 
	C117.320435,561.107178 114.767563,557.316833 114.165054,553.946960 
	C113.905907,552.497498 113.176064,551.125977 112.967705,549.674927 
	C112.407913,545.776306 113.899849,543.785095 118.153862,543.833801 
	C126.984985,543.934937 135.853241,543.269165 144.640854,543.871887 
	C151.086349,544.314026 155.943604,538.689636 162.501892,540.375427 
	C160.244659,538.794495 157.796082,539.152710 155.509171,539.346680 
	C142.082108,540.485657 128.669800,541.797485 115.246613,542.984375 
	C112.775253,543.202881 111.310570,543.829163 111.248299,546.811462 
	C111.119766,552.966675 110.815926,553.041016 104.617790,550.687927 
	C98.699043,548.440918 96.819962,537.402344 101.575813,532.717529 
	C103.319038,533.520447 102.934875,535.213379 103.155121,536.618835 
	C103.410698,538.249756 104.068054,539.472107 105.822281,539.790466 
	C107.306435,540.059937 108.479721,539.580750 109.106537,538.166748 
	C109.825203,536.545532 109.185966,535.182861 107.955704,534.161133 
	C103.990425,530.867859 103.463120,526.602356 104.379860,521.920837 
	C104.533676,521.135315 104.798134,520.278992 106.435982,519.913879 
	C108.763741,528.492493 115.078903,526.959473 121.877609,526.162231 
	C132.440079,524.923523 143.092453,524.570312 153.658051,523.008301 
	C162.617844,521.683777 162.682892,522.088257 163.938492,530.818665 
	C164.124649,532.113098 164.236191,533.418213 164.527954,536.015198 
	C164.682983,518.366455 166.678452,521.710754 151.823029,521.413940 
	C146.203568,521.301636 140.589539,520.508301 135.027206,523.831787 
	C132.179626,525.533142 127.538788,524.256042 123.708122,524.283203 
	C119.721237,524.311523 115.733994,524.289490 111.703201,524.289490 
	C109.801979,520.047668 111.329124,516.125244 111.454964,512.101746 
	C111.834740,515.518311 112.642540,518.531677 116.691917,518.888550 
	C122.881996,519.434204 127.998215,518.086792 129.656082,510.539215 
	C127.944878,509.187012 125.457405,507.398102 125.939087,504.184326 
	C127.049057,496.778687 122.206154,493.941284 116.622749,491.415131 
	C109.640778,488.256165 104.118080,482.983673 98.288193,478.194305 
	C96.644501,476.843994 96.688934,474.489410 96.492119,472.596466 
	C96.044525,468.291473 96.195496,463.952057 98.811111,459.891266 
	C98.811111,464.724518 98.811111,469.557800 98.811111,474.073029 
	C115.916931,483.144440 130.468216,495.006561 146.801758,504.110809 
	C142.851028,499.198364 137.293091,496.294250 132.293655,492.740540 
	C122.801888,485.993530 113.214584,479.374268 103.518730,472.924744 
	C100.262306,470.758636 99.645981,468.293091 100.902611,464.868347 
	C103.395050,458.075562 106.775261,453.156036 114.978104,451.458893 
	C131.732819,447.992371 148.204468,443.165466 164.811172,438.972107 
	C171.595612,437.258972 171.617447,437.345459 173.607880,443.441498 
	C173.607880,441.378265 173.830521,439.285309 173.560104,437.258118 
	C173.046036,433.404236 169.390427,431.198944 165.441299,432.126099 
	C147.392929,436.363342 128.845505,425.889465 124.637268,408.344421 
	C122.620331,399.935333 121.678772,390.677856 127.124268,383.243134 
	C132.293640,376.185455 136.743088,368.120728 145.285538,364.023926 
	C148.563812,362.451752 150.636154,362.438324 151.437683,366.489838 
	C151.628983,367.456726 152.049164,368.399292 152.486816,369.292969 
	C154.537262,373.480072 153.882599,376.121918 149.088486,378.121765 
	C141.142792,381.436310 138.384338,388.563751 137.353058,397.232300 
	C137.944641,396.567261 138.236801,396.261353 138.502686,395.934082 
	C138.813049,395.552032 139.373856,395.139252 139.357040,394.760620 
	C139.079590,388.510376 144.927811,385.687378 147.298996,380.883423 
	C148.277679,378.900665 152.231476,379.001892 154.147354,376.698059 
	C155.086380,375.568909 156.063766,374.388397 155.458939,373.235962 
	C153.872742,370.213623 153.870071,366.859619 152.976425,363.707520 
	C152.495926,362.012726 151.443192,361.244476 149.724838,361.210083 
	C147.580475,361.167175 145.868073,360.368317 144.919403,358.447754 
	C144.878860,356.137299 147.697754,356.596222 148.083694,354.840820 
	C143.818085,339.999664 147.813690,335.821594 158.377777,327.207245 
	C159.280792,326.470886 160.292160,325.610291 161.309052,327.059082 
	C162.374161,328.576630 160.999222,329.016479 160.098114,329.678436 
	C156.918198,332.014435 153.876953,334.192688 152.219193,338.259003 
	C150.745575,341.873627 151.392471,344.628235 153.760162,346.809845 
	C163.918579,356.169891 174.344635,365.239258 184.522217,374.579010 
	C185.736847,375.693665 187.265701,377.052246 187.471207,379.249054 
	C184.995422,381.163849 182.994919,383.830170 179.133789,383.392365 
	C176.594299,383.104431 176.300003,385.136261 176.298752,387.115448 
	C176.296463,390.781982 175.941208,394.486633 176.345261,398.107056 
	C177.167801,405.477234 172.746094,409.243225 167.175125,412.271118 
	C165.967850,412.927277 164.630493,413.095642 164.896500,414.850281 
	C165.626801,415.663971 166.472946,415.510773 167.212234,415.110840 
	C172.523773,412.237366 181.511612,402.320221 179.513184,393.354279 
	C178.852753,390.391174 178.952957,387.327026 181.704910,385.742615 
	C187.351303,382.491730 191.109573,382.029175 192.546478,389.530396 
	C194.607559,400.290039 190.517609,409.472626 185.863449,418.599762 
	C185.565750,419.183563 185.181137,419.722748 184.871201,420.301025 
	C184.835052,420.368469 185.018677,420.553650 185.330841,421.052399 
	C190.591507,412.710999 195.466736,404.598389 194.810867,394.266113 
	C194.376068,387.416443 194.675995,387.404327 201.069565,388.206146 
	C201.273300,388.231689 201.536057,387.786713 201.882507,387.283630 
	C201.993698,387.006134 201.970306,387.025024 201.970306,387.025024 
	C203.250763,387.165436 204.645248,386.627869 205.861603,387.705261 
	C206.425323,390.465546 205.623352,392.818634 203.780807,394.990540 
	C202.202744,396.850708 201.671005,399.373169 203.843735,400.739655 
	C211.021774,405.253845 212.032425,412.656464 212.741211,419.845581 
	C213.427567,426.807159 213.999680,433.819275 215.373138,440.626770 
	C217.231369,449.837128 216.763107,458.694611 214.880722,467.817780 
	C212.711838,478.329468 214.214447,489.052887 214.468689,499.686768 
	C214.492432,500.679535 214.930756,501.693848 214.813614,502.653870 
	C212.574966,520.997742 224.190414,532.640869 235.096161,544.600769 
	C237.900040,547.675659 241.732391,548.955078 245.667389,549.884766 
	C252.899841,551.593506 258.379211,555.623352 263.393646,561.187683 
	C270.754730,569.356079 277.586121,577.883423 284.430908,586.467468 
	C290.489471,594.065369 294.517059,602.919861 300.679749,610.375122 
	C302.581207,612.675293 303.896179,615.517517 305.998322,617.584045 
	C312.706482,624.178955 313.504028,633.425598 316.848236,641.459167 
	C325.216431,661.561584 337.337921,678.466431 354.575775,692.002808 
	C360.371613,696.554077 365.610016,702.017517 371.248291,706.913208 
	C373.431091,708.808533 374.667816,711.551270 374.411865,714.520630 
	C374.141998,717.651062 375.645355,719.673279 377.406647,722.060486 
	C385.341095,732.814636 392.777679,743.831482 392.082977,758.191345 
	C391.901978,761.933411 391.704651,765.745544 393.883362,769.337524 
	C395.101013,771.345093 390.942535,776.940002 388.038208,776.717529 
	C377.976624,775.946777 375.172119,784.576477 369.900391,790.023560 
	C369.338837,790.603699 368.992859,791.387878 368.465057,792.007690 
	C368.293304,792.209351 367.860474,792.188782 366.933716,792.428589 
	C365.173584,788.314148 365.627747,784.231567 367.005219,780.136353 
	C367.425354,778.887268 368.636658,777.641785 368.502686,776.511047 
	C367.585938,768.774048 370.913971,761.510437 370.771576,753.862610 
	C370.612091,745.296326 373.622223,737.014832 372.962524,728.307556 
	C372.630981,723.931519 371.647064,721.656128 366.951477,722.175049 
	C365.635834,722.320496 364.289520,722.184875 362.957275,722.184204 
	C355.404297,722.180603 355.987732,722.343933 354.001068,729.465820 
	C352.817444,733.708923 352.321198,737.803894 352.210297,742.076416 
	C352.149414,744.421143 350.757660,745.253113 348.621094,745.247375 
	C345.457886,745.238953 342.294647,745.232727 338.590759,745.112793 
	C338.050079,745.000061 337.873627,744.878967 337.873627,744.878967 
M218.728760,654.317932 
	C217.172791,651.718140 215.896347,648.891663 212.351166,646.289307 
	C213.946091,650.730225 215.991119,653.230286 219.157150,655.668579 
	C222.935272,660.246704 221.328094,663.170410 216.807617,666.351196 
	C210.287399,670.939026 204.462830,676.501709 198.105545,681.338318 
	C188.995514,688.269287 180.732132,696.299316 171.025894,702.577454 
	C167.758209,700.565552 166.103439,697.365784 163.685928,694.912292 
	C160.865417,692.049805 160.993484,689.931213 164.495453,687.275391 
	C175.762802,678.730469 186.653305,669.689880 197.877518,661.086182 
	C201.773941,658.099426 201.667938,655.772705 198.511459,652.319641 
	C193.801346,647.166931 189.476135,641.657837 185.079742,636.225464 
	C183.618835,634.420227 181.932037,632.292847 184.234131,630.071106 
	C186.493713,627.890381 188.796906,625.257141 191.592056,624.270630 
	C194.335205,623.302429 194.868744,627.489441 196.972855,628.689148 
	C197.290604,628.870300 197.837723,628.649231 198.805710,628.572388 
	C196.790482,624.949524 195.095352,621.703857 190.397430,622.862061 
	C184.617447,624.287048 179.910461,629.120850 180.375183,632.922852 
	C180.533081,634.214600 181.308243,635.016052 182.157867,635.815979 
	C188.812210,642.081055 193.822662,649.582214 198.400696,657.099121 
	C191.821457,663.079407 185.327835,668.895508 177.928986,673.507996 
	C173.442245,676.305115 170.651489,680.889709 166.411102,683.863037 
	C158.401031,689.479431 158.160019,690.779541 164.320419,698.158936 
	C165.062393,699.047729 165.852219,699.897949 166.568497,700.806519 
	C169.599655,704.651245 172.353180,704.575623 176.212280,701.520813 
	C178.349899,699.828674 180.358948,697.938049 182.738007,696.416809 
	C187.815918,693.169556 192.624405,689.346619 196.989624,685.179626 
	C202.016464,680.381104 207.176514,676.001160 213.637970,673.190430 
	C214.500992,674.976746 214.358887,676.866272 216.337784,677.546997 
	C220.889267,679.112549 223.640411,683.273438 227.402603,685.969910 
	C230.122192,687.919128 234.570663,689.591797 235.405334,693.088257 
	C236.456772,697.492676 231.412048,699.491455 229.361877,702.756836 
	C223.606644,711.923584 216.734451,720.317810 209.776230,728.606445 
	C206.474197,732.539795 206.188461,735.586060 209.747711,739.267944 
	C212.520981,742.136719 215.703751,744.609619 218.631012,747.193542 
	C224.486267,743.760193 228.428696,738.458435 232.314148,733.682922 
	C241.240814,722.711487 248.737656,710.589233 258.333282,700.084167 
	C263.217804,694.736755 263.029449,691.213623 257.058380,686.619141 
	C253.527878,683.902710 249.332428,682.056763 246.831223,678.095276 
	C246.603653,677.734741 245.908478,677.704773 245.547577,677.387878 
	C241.051651,673.440491 235.801392,670.529419 231.087448,666.841797 
	C226.539017,663.283569 223.086853,658.863403 218.728760,654.317932 
M277.943542,722.362366 
	C281.016022,719.282837 283.850281,720.538269 287.281769,722.177429 
	C293.411865,725.105652 296.641418,731.293213 294.490875,737.342163 
	C290.707306,747.984314 285.541168,758.023193 281.106995,768.380310 
	C279.410461,772.343018 279.313385,775.943176 283.612885,778.785339 
	C286.700958,780.826660 290.732666,780.713318 293.438080,783.666626 
	C294.142120,784.435303 297.078400,784.232788 297.228546,782.592529 
	C297.607605,778.450317 301.502167,776.114258 302.170868,772.522034 
	C303.936340,763.037903 310.213287,755.317139 312.132050,746.001892 
	C314.755219,733.266907 317.123840,720.376648 304.645447,710.883057 
	C300.465485,707.703064 296.461884,703.695984 290.863953,703.383972 
	C284.218658,703.013550 277.536774,703.288757 270.870850,703.307190 
	C269.549744,703.310852 268.278564,703.360779 267.045319,704.132935 
	C259.761658,708.693542 255.949539,715.943176 252.262192,723.237122 
	C248.268417,731.137146 246.214691,739.844482 242.522278,747.846130 
	C238.326675,756.938171 238.027084,756.799927 244.621994,762.990479 
	C248.592636,766.717896 256.213501,766.790894 257.358307,762.892151 
	C259.675537,755.000916 263.748169,747.893860 266.800171,740.340210 
	C269.390839,733.928345 271.633453,727.302856 277.943542,722.362366 
M121.278679,468.378754 
	C126.695778,471.724884 131.881699,475.483887 138.191803,478.298676 
	C139.338593,472.179901 140.385696,466.592957 141.589630,460.169342 
	C133.244049,462.030609 125.729179,463.706604 117.224419,465.603363 
	C119.102196,466.887207 119.916435,467.443909 121.278679,468.378754 
M167.880096,454.606262 
	C164.809418,455.313995 161.740723,456.030518 158.667252,456.725922 
	C157.010437,457.100800 155.215790,457.484467 154.859146,459.429413 
	C153.471542,466.997070 152.211716,474.588196 150.904358,482.170563 
	C153.316147,478.824951 153.583344,475.153595 153.715210,471.370270 
	C154.061661,461.430359 156.095505,458.984375 164.950729,457.051208 
	C171.267334,455.672241 171.772095,454.977966 171.383743,448.162811 
	C170.540558,450.276337 170.961792,452.924438 167.880096,454.606262 
M149.126831,414.484772 
	C154.806381,417.098236 156.922836,417.335846 161.623688,415.856262 
	C153.500732,415.090363 146.663147,411.699524 140.822769,406.059021 
	C141.925598,410.240295 145.168747,412.204315 149.126831,414.484772 
M115.842682,568.080688 
	C115.373619,569.872192 116.297058,570.601624 117.909653,570.551819 
	C119.290436,570.509155 120.590164,569.932190 121.175095,568.628174 
	C121.910133,566.989563 121.135521,565.789062 119.541267,564.924194 
	C117.986313,565.207214 117.026596,566.319397 115.842682,568.080688 
z"/>
<path fill="#000000" opacity="1.000000" stroke="none" 
	d="
M440.610107,240.293732 
	C450.319794,243.759552 460.537140,244.599960 468.911591,250.615097 
	C477.213531,256.578125 478.566498,268.077271 471.842438,275.537598 
	C469.883911,277.710632 466.985260,278.282532 464.950500,280.015564 
	C464.841492,281.374542 465.754333,281.986298 466.400757,282.676239 
	C471.723999,288.357697 472.103790,294.748657 469.241394,301.645630 
	C466.419952,308.444031 460.389252,310.175903 453.994232,311.149445 
	C448.199585,312.031555 442.814636,309.711853 437.400421,308.315155 
	C428.424744,305.999664 419.652405,302.903503 410.699249,300.488922 
	C407.539490,299.636749 407.100464,298.100006 407.874542,295.449951 
	C413.088470,277.600311 418.355804,259.765961 423.469543,241.887650 
	C424.765350,237.357315 427.192444,236.004395 431.610352,237.656052 
	C434.404480,238.700638 437.345978,239.350983 440.610107,240.293732 
M434.789642,278.963715 
	C433.226257,278.463348 431.714935,277.655090 429.601990,278.239929 
	C428.405457,281.946838 427.156525,285.854767 425.880066,289.753662 
	C425.273071,291.607758 426.159088,292.785797 427.791290,293.143005 
	C434.083923,294.519989 439.910980,297.675507 446.496338,297.936951 
	C450.585785,298.099274 454.459167,297.632843 455.490509,292.895325 
	C456.503357,288.242523 453.867523,285.211426 449.729919,283.692505 
	C445.070648,281.982086 440.263519,280.674316 434.789642,278.963715 
M447.860229,270.464966 
	C448.496887,270.660950 449.135010,270.852478 449.769989,271.053741 
	C454.106018,272.427826 457.474792,270.756958 459.451324,267.078522 
	C461.350891,263.543304 459.169403,259.459595 454.685913,257.470398 
	C452.270844,256.398956 449.674011,255.712585 447.123779,254.974823 
	C435.726166,251.677521 435.776093,251.703552 433.648651,263.147217 
	C433.272736,265.169250 433.504089,266.277252 435.637024,266.843933 
	C439.484985,267.866241 443.287018,269.061401 447.860229,270.464966 
z"/>
<path fill="#000000" opacity="1.000000" stroke="none" 
	d="
M196.744202,304.879242 
	C196.608398,300.231720 197.707169,295.658478 193.027390,293.161499 
	C193.680786,290.848724 195.168381,290.741577 196.668350,291.327271 
	C200.466751,292.810425 202.503830,290.933746 204.361053,287.902008 
	C210.086807,278.555359 216.600433,276.869263 225.780655,283.096863 
	C230.814484,286.511688 236.185715,290.213531 235.270233,297.989777 
	C234.870743,301.383087 237.868988,302.916443 240.820190,304.186584 
	C246.141022,306.476562 250.110062,309.937744 250.078323,316.459076 
	C250.060196,320.183167 248.694839,322.880829 245.281281,324.465118 
	C244.375946,324.885284 243.475754,325.316711 242.576675,325.750183 
	C235.751816,329.040619 235.578369,329.684326 239.928329,335.543732 
	C240.398804,336.177490 240.865128,336.814331 241.623062,337.842804 
	C226.824677,339.575836 213.469650,333.125000 199.086258,333.998901 
	C198.204163,323.994415 199.970581,314.425232 196.744202,304.879242 
z"/>
<path fill="#000000" opacity="1.000000" stroke="none" 
	d="
M496.516174,708.581177 
	C494.670074,704.166687 491.994781,704.589111 488.814758,706.463074 
	C481.942291,710.513000 475.058289,714.548218 468.079163,718.408936 
	C466.319855,719.382019 464.245361,721.601440 462.254913,719.979797 
	C459.671387,717.875000 458.371277,714.615906 457.481293,711.388428 
	C457.192078,710.339478 458.406036,709.673523 459.237396,709.181580 
	C460.949951,708.168274 462.643616,706.944092 464.517029,706.410889 
	C476.543091,702.987976 484.884613,693.258789 496.009399,688.144470 
	C500.742920,685.968445 502.310974,686.884216 504.432617,690.666382 
	C512.001282,704.158691 519.716248,717.568970 527.379822,731.007996 
	C528.862000,733.607178 530.210876,736.299561 531.894226,738.762329 
	C533.796387,741.545166 532.999451,743.346252 530.336060,744.835815 
	C517.428162,752.054565 504.525909,759.283508 491.728363,766.449097 
	C484.105255,759.916565 484.397034,756.510376 492.587036,751.741516 
	C499.575256,747.672485 506.505066,743.502991 513.102905,739.590088 
	C513.160156,738.711609 513.237183,738.513184 513.172058,738.390076 
	C506.174316,725.160095 508.510162,726.738098 497.074738,733.149963 
	C491.899445,736.051758 486.662781,738.844116 481.799713,741.497437 
	C480.884247,741.010071 480.445190,740.930054 480.329498,740.692566 
	C475.650452,731.086975 475.660126,731.095703 485.356445,725.527954 
	C490.373566,722.647156 495.364899,719.721497 500.809570,716.559509 
	C499.326263,713.765076 498.025482,711.314453 496.516174,708.581177 
z"/>
<path fill="#000000" opacity="1.000000" stroke="none" 
	d="
M382.120178,259.247864 
	C387.511993,259.269592 392.487152,259.269592 397.428986,259.269592 
	C398.848511,262.832703 398.109711,265.820801 397.905762,268.706879 
	C397.702362,271.585236 395.177307,271.825012 393.005768,271.831757 
	C387.010071,271.850403 381.011383,271.765717 375.018524,271.575287 
	C369.007294,271.384308 368.040436,272.220551 368.005005,278.244080 
	C367.995178,279.910065 367.927155,281.583405 368.050842,283.241058 
	C368.471039,288.873383 370.837341,290.692200 376.423370,291.406494 
	C381.262054,292.025238 386.062225,291.764069 390.875214,291.984344 
	C394.288879,292.140656 397.599304,292.379822 399.441559,288.546417 
	C399.970123,287.446655 401.158325,286.921692 402.436951,287.408417 
	C403.885071,287.959686 403.481628,289.224182 403.518036,290.384613 
	C403.796509,299.264221 403.814941,299.233307 394.738617,299.209076 
	C383.740326,299.179688 372.741791,299.234314 361.743530,299.201447 
	C355.609283,299.183105 353.016296,297.045807 352.920319,290.761993 
	C352.653168,273.274445 352.734741,255.781570 352.683624,238.290802 
	C352.673492,234.820511 354.494873,232.933212 357.887177,232.929688 
	C371.385498,232.915604 384.884979,232.931503 398.381775,233.109268 
	C403.725464,233.179642 402.828918,237.401138 403.008606,240.815002 
	C403.190826,244.277145 401.900787,246.080887 398.130035,246.024597 
	C389.798950,245.900192 381.462189,246.124786 373.132294,245.966064 
	C366.022614,245.830597 368.798370,251.067490 368.307007,254.477036 
	C367.770081,258.202393 369.457642,259.588959 373.233795,259.167816 
	C376.020233,258.857117 378.877686,259.183594 382.120178,259.247864 
z"/>
<path fill="#000000" opacity="1.000000" stroke="none" 
	d="
M202.005188,386.997711 
	C194.049393,381.758331 187.848526,374.498566 180.687790,368.337311 
	C173.000717,361.723175 165.699158,354.659973 158.253159,347.767059 
	C152.910110,342.820892 153.001846,340.679016 158.646042,336.421631 
	C164.818192,331.766022 164.810364,331.774658 170.746597,337.147827 
	C175.049667,341.042725 179.376953,344.910889 184.586365,349.593628 
	C184.586365,341.711304 185.065567,334.798218 184.420334,327.991791 
	C183.979523,323.341736 183.780869,318.712006 183.702164,314.072418 
	C183.601959,308.164856 187.834793,302.385986 194.178452,299.806427 
	C195.979904,304.001373 195.511841,308.543457 196.015488,312.840027 
	C196.750458,319.109924 197.048935,325.443085 197.253433,331.758331 
	C197.367630,335.284485 198.840668,336.545593 202.307709,337.080505 
	C207.631195,337.901825 213.188187,337.452759 218.669342,339.540375 
	C215.590210,344.073730 209.249680,339.900208 206.353943,345.229126 
	C211.395508,348.899506 218.261475,346.414337 223.349060,349.646118 
	C222.420822,352.460724 220.330490,352.043182 218.659531,352.045593 
	C214.173431,352.052063 209.680176,351.961060 205.202515,351.694580 
	C199.687134,351.366333 199.372681,352.135193 199.051392,357.586395 
	C198.719101,363.224548 201.760941,366.476135 205.299637,369.870483 
	C210.822937,375.168579 210.771652,375.747498 205.785645,381.649902 
	C204.508850,383.161377 202.807312,384.358063 202.064011,386.690735 
	C201.970306,387.025024 201.993698,387.006134 202.005188,386.997711 
z"/>
<path fill="#000000" opacity="1.000000" stroke="none" 
	d="
M315.878235,283.421387 
	C318.495758,283.922119 317.076447,282.204834 317.053284,281.479492 
	C316.649475,268.828644 316.105530,256.182129 315.730255,243.530563 
	C315.543060,237.219986 321.609436,231.908188 327.713165,232.832535 
	C330.663879,233.279404 329.969482,235.729828 330.114929,237.564606 
	C331.116577,250.202042 330.803894,262.876373 331.164795,275.528900 
	C331.399078,283.741119 330.779297,291.748901 328.923035,299.674713 
	C327.672974,305.012115 322.364136,304.249756 318.769440,305.095520 
	C315.603058,305.840546 313.558777,302.707733 312.850128,299.187836 
	C315.843872,301.831329 318.952026,302.292664 322.436554,300.612946 
	C325.173126,299.293823 327.494110,297.837891 326.567780,294.229645 
	C325.585724,290.404236 323.302979,287.758057 319.171173,288.328125 
	C316.479980,288.699493 313.964935,288.930725 311.523254,287.862762 
	C311.197327,288.362427 310.874725,288.628601 310.869904,288.900482 
	C310.830902,291.092987 312.662140,294.022308 309.861481,295.204254 
	C307.027588,296.400208 306.090240,293.104187 304.725067,291.447113 
	C299.471405,285.070068 294.381683,278.557983 288.687256,271.414337 
	C287.254883,276.936005 289.177521,282.102020 286.479187,287.610138 
	C285.028229,284.598785 283.929871,282.434357 282.940674,280.221161 
	C282.387512,278.983490 281.925903,277.484222 280.620605,277.100952 
	C274.349335,275.259583 274.886841,270.145813 274.784912,265.338379 
	C274.728394,262.673676 274.763184,260.004089 274.855103,257.340088 
	C274.926025,255.284821 275.332581,253.360764 278.332703,252.762726 
	C277.001312,257.658508 280.338562,260.998505 281.789001,264.951202 
	C284.235931,271.619385 290.064301,262.451233 292.981964,268.035889 
	C293.829956,260.261902 289.009888,256.153778 284.669556,251.224930 
	C288.145599,250.720749 290.938599,251.268845 293.087219,254.040039 
	C300.623596,263.760040 308.159821,273.480133 315.878235,283.421387 
z"/>
<path fill="#000000" opacity="1.000000" stroke="none" 
	d="
M338.142822,745.053467 
	C341.926056,747.164734 345.995239,746.607300 349.954773,746.799744 
	C352.449402,746.921021 353.442078,745.584045 353.810974,743.228882 
	C354.530487,738.635376 355.306519,734.037903 356.363983,729.513367 
	C357.645905,724.028748 361.935425,724.890503 366.002533,725.233704 
	C370.251617,725.592285 371.755280,727.806030 371.238861,731.897034 
	C369.114624,748.724670 367.252197,765.590698 364.686005,782.349609 
	C364.406311,784.176025 363.394562,786.475220 362.713257,788.566406 
	C361.754761,791.508301 358.907745,791.396423 356.357300,790.533203 
	C351.656403,788.942017 346.994720,787.234924 342.380371,785.049927 
	C345.332214,783.420654 348.069672,785.310547 350.903687,785.644287 
	C353.428925,785.941589 357.441010,788.973267 358.139282,785.215271 
	C358.774750,781.795654 353.690704,781.772095 351.146698,781.618469 
	C347.306519,781.386536 343.762817,781.124146 340.582642,779.095398 
	C341.054993,776.755737 342.619507,776.758362 343.819092,776.944763 
	C348.717865,777.706299 350.271545,775.098938 350.606781,770.809448 
	C351.528870,759.010498 354.110229,761.380310 342.091492,759.404602 
	C336.842773,758.541870 331.542419,757.986694 326.259521,757.340759 
	C323.510406,757.004578 321.053436,756.187256 321.904724,752.786194 
	C322.694672,749.630249 321.190399,744.740479 326.982635,744.708557 
	C330.311340,744.690247 333.640961,744.848022 337.421906,744.902710 
	C337.873627,744.878967 338.050079,745.000061 338.142822,745.053467 
z"/>
<path fill="#000000" opacity="1.000000" stroke="none" 
	d="
M473.017456,765.203735 
	C473.147125,765.890198 473.270233,766.559937 473.006134,766.795471 
	C472.295624,767.428833 471.419769,767.876770 470.238983,768.636963 
	C465.330170,753.290039 462.110443,737.860840 458.459686,721.629089 
	C467.758606,725.092468 472.985870,718.022339 479.616089,715.141479 
	C484.219421,713.141357 488.447510,710.277710 493.075256,707.669006 
	C494.527008,710.055054 495.854675,712.237183 497.231110,714.499512 
	C493.911804,718.550781 489.271118,720.070862 485.125702,722.358887 
	C481.164246,724.545349 476.916931,726.293884 474.115112,730.200806 
	C473.056671,731.676697 472.681061,732.534485 473.512482,734.502625 
	C474.821014,737.600220 476.268829,740.502502 478.327606,743.136414 
	C479.526764,744.670593 481.383301,745.374817 482.711792,744.282471 
	C486.499237,741.168274 491.162994,739.604309 495.300476,737.207764 
	C498.826324,735.165466 502.649994,732.497314 506.966187,731.922913 
	C510.199005,738.345032 509.521210,738.336304 504.310760,741.582336 
	C498.164764,745.411133 491.408386,748.131104 485.541534,752.309998 
	C481.872253,754.923767 482.939667,758.671753 484.925812,762.482483 
	C481.330444,763.833374 478.868073,762.504028 477.035217,759.632690 
	C475.821869,757.731812 476.151733,753.404602 472.817993,754.833252 
	C469.611389,756.207520 470.807404,760.347046 471.012939,763.399536 
	C471.051178,763.967712 472.198730,764.461121 473.017456,765.203735 
z"/>
<path fill="#000000" opacity="1.000000" stroke="none" 
	d="
M139.002228,431.138489 
	C147.750015,436.601227 157.479462,433.705841 166.898621,435.127899 
	C166.367218,436.128479 166.140656,436.870514 165.954285,436.860535 
	C158.685135,436.471802 151.573441,438.981323 145.601654,441.781555 
	C139.030701,444.862793 131.866394,442.553070 125.576141,446.625488 
	C122.540390,448.590881 117.297707,447.250061 113.596619,449.917908 
	C112.890732,450.426758 111.516754,450.062195 110.982178,449.066986 
	C110.270508,447.742035 110.901367,446.482880 111.604286,445.321442 
	C116.628189,437.020050 118.644722,427.748627 116.580650,418.560974 
	C114.806015,410.661652 115.258148,403.141205 115.940170,395.377563 
	C116.549400,388.442627 119.849945,383.106689 125.436249,378.784729 
	C124.907181,380.860931 124.689659,383.083069 123.796890,384.988922 
	C119.102020,395.011169 120.241455,405.279633 124.330162,414.705688 
	C126.784157,420.363098 131.006577,425.893524 137.068680,429.097443 
	C137.742447,429.453552 138.158157,430.297882 139.002228,431.138489 
z"/>
<path fill="#000000" opacity="1.000000" stroke="none" 
	d="
M249.530899,266.438568 
	C257.317719,278.075836 267.246887,287.631866 274.522858,299.210480 
	C275.132721,300.181030 276.192657,300.907776 275.871490,302.247589 
	C274.572937,307.664581 268.820709,306.440918 265.513184,308.976044 
	C263.696259,310.368683 261.903168,307.647156 261.165558,305.949646 
	C259.715729,302.613098 255.716461,300.254700 257.078674,295.526794 
	C258.605377,295.202667 260.178253,294.868744 261.701263,294.545410 
	C262.756836,292.355499 261.652863,290.444611 260.436401,289.476379 
	C257.034668,286.768799 254.314850,283.525269 251.513016,280.267487 
	C249.887543,278.377502 248.146393,279.217682 247.580627,281.601990 
	C247.328033,282.666473 247.537918,283.840668 247.537918,286.106506 
	C241.530029,281.427429 236.655640,277.038971 233.871017,270.757111 
	C233.576050,270.091675 234.183411,268.823669 234.689072,268.039612 
	C237.414520,263.813599 245.324615,262.844452 249.530899,266.438568 
z"/>
<path fill="#000000" opacity="1.000000" stroke="none" 
	d="
M458.841766,746.234863 
	C455.864807,742.218262 452.999512,738.559631 450.318207,734.770874 
	C448.798096,732.622803 446.418793,733.367981 444.295929,732.886047 
	C443.579712,729.309570 442.992737,725.977173 440.900787,722.970093 
	C438.763458,719.897766 441.142944,716.026550 446.077576,713.933533 
	C449.487030,712.487488 453.138336,711.392700 454.439636,716.452454 
	C456.665985,725.108643 458.820038,733.797241 460.528473,742.565002 
	C461.088470,745.438904 463.571136,748.197327 461.849365,751.796570 
	C459.580902,750.469604 460.232513,747.995605 458.841766,746.234863 
z"/>
<path fill="#000000" opacity="1.000000" stroke="none" 
	d="
M168.034088,324.710266 
	C171.198303,324.050934 171.574860,321.553955 172.313995,319.412384 
	C173.939804,314.701752 175.962967,310.173767 178.327850,305.796112 
	C178.525742,305.429810 179.028412,305.228119 180.028214,304.457886 
	C180.028214,307.718140 180.278091,310.445343 179.982468,313.112061 
	C179.002747,321.949768 185.120071,329.818481 183.347549,338.758179 
	C183.036957,340.324615 183.303513,342.005493 183.303513,344.761292 
	C175.713943,338.317902 168.220123,333.431152 163.128616,326.104553 
	C164.689087,323.939728 166.262314,324.743164 168.034088,324.710266 
z"/>
<path fill="#000000" opacity="1.000000" stroke="none" 
	d="
M430.281647,745.112732 
	C433.032867,743.867920 435.428894,742.730652 437.892639,741.766541 
	C441.145691,740.493469 444.216522,740.226318 446.596130,744.124146 
	C442.732513,745.955200 439.113495,747.437622 435.227814,748.217224 
	C425.116333,750.245667 422.429352,753.793335 423.321777,763.928589 
	C423.433472,765.197144 423.976166,766.581482 422.626312,767.588501 
	C416.383514,762.661560 419.577881,749.356689 430.281647,745.112732 
z"/>
<path fill="#000000" opacity="1.000000" stroke="none" 
	d="
M90.618866,501.366638 
	C93.257660,499.928589 95.701927,499.840485 98.210754,500.312103 
	C101.780693,500.983185 105.271454,501.829987 109.026230,501.267731 
	C111.803726,500.851837 113.341820,502.347687 112.342430,506.130585 
	C110.116501,503.753571 108.093163,503.298920 105.305664,504.604919 
	C103.368118,505.512726 100.729706,505.211792 98.440231,505.021027 
	C93.789383,504.633453 91.506989,506.392883 91.892220,511.227722 
	C91.977737,512.301025 92.403946,513.548828 90.839645,514.813843 
	C90.994705,511.348358 91.269966,508.271454 88.630196,505.679352 
	C87.302689,504.375763 88.930588,502.657410 90.618866,501.366638 
z"/>
<path fill="#000000" opacity="1.000000" stroke="none" 
	d="
M242.212555,287.868378 
	C243.288498,288.681427 244.034271,289.376678 243.365097,290.515808 
	C242.744110,291.572876 241.678055,291.674286 240.768753,291.095490 
	C239.243088,290.124390 237.328293,289.260925 236.478500,287.820496 
	C233.151672,282.181335 230.158279,276.344238 227.091553,270.553955 
	C226.573929,269.576599 226.811218,268.632294 228.200348,267.774323 
	C232.820572,274.426178 237.413696,281.039032 242.212555,287.868378 
z"/>
<path fill="#000000" opacity="1.000000" stroke="none" 
	d="
M441.962708,755.032227 
	C445.086731,755.083496 443.395966,752.251526 444.407227,750.943726 
	C445.976868,754.822083 448.204041,758.410034 446.660187,762.947815 
	C445.721497,765.706848 444.419525,767.160889 441.368835,767.007629 
	C438.059204,766.841370 434.734711,766.969910 431.358673,766.726501 
	C435.763000,766.221252 438.401337,762.528198 442.218658,760.916138 
	C444.696869,759.869568 442.675537,757.431824 442.094910,755.314514 
	C441.995911,755.003906 441.962708,755.032227 441.962708,755.032227 
z"/>
<path fill="#000000" opacity="1.000000" stroke="none" 
	d="
M404.955933,775.894653 
	C401.338562,771.187073 398.423920,766.630432 400.595856,759.872803 
	C407.799164,764.042114 405.141022,772.316711 409.171112,777.343262 
	C406.613495,778.998108 405.986572,777.324890 404.955933,775.894653 
z"/>
<path fill="#000000" opacity="1.000000" stroke="none" 
	d="
M295.820618,284.291260 
	C297.165710,285.760315 298.294312,286.963745 299.335358,288.238647 
	C300.238556,289.344757 299.880829,291.191345 298.904205,291.088257 
	C293.599884,290.528351 293.151825,294.699524 291.229614,297.943512 
	C291.229614,292.482025 291.229614,287.020538 291.229614,281.503418 
	C293.674591,280.740631 294.059845,283.355774 295.820618,284.291260 
z"/>
<path fill="#000000" opacity="1.000000" stroke="none" 
	d="
M432.940674,738.117065 
	C431.260956,740.417725 429.149719,740.356201 426.325775,737.647949 
	C423.808899,735.234253 421.444000,732.693604 418.588654,730.631653 
	C413.045624,726.628906 413.088837,726.569092 407.311218,725.246338 
	C409.808624,722.048828 412.630402,722.600769 415.152893,724.465454 
	C417.534485,726.225952 419.543091,728.506531 421.639771,730.633301 
	C424.819977,733.859314 428.295868,736.602905 432.940674,738.117065 
z"/>
<path fill="#000000" opacity="1.000000" stroke="none" 
	d="
M201.623138,357.093811 
	C207.206757,360.678802 210.295532,366.080872 214.630280,372.071503 
	C208.161804,370.373352 205.743790,365.165863 201.345322,362.682556 
	C200.130417,361.996613 200.702225,358.970642 201.623138,357.093811 
z"/>
<path fill="#000000" opacity="1.000000" stroke="none" 
	d="
M322.849976,773.992554 
	C324.369049,774.322632 325.121918,775.012390 323.875153,775.928894 
	C321.672272,777.548279 319.285156,778.917053 316.973541,780.391724 
	C314.329742,775.744019 315.927460,773.940796 322.849976,773.992554 
z"/>
<path fill="#000000" opacity="1.000000" stroke="none" 
	d="
M406.391724,730.622437 
	C407.753204,732.832153 410.226166,733.830688 410.579193,736.428467 
	C405.256378,734.469604 400.830566,729.784912 400.991180,726.214844 
	C403.622467,726.499207 404.772003,728.597778 406.391724,730.622437 
z"/>
<path fill="#000000" opacity="1.000000" stroke="none" 
	d="
M465.569458,763.065063 
	C465.677612,765.322998 464.929810,765.872314 463.288605,764.651489 
	C461.033813,762.974243 460.061218,759.286316 461.034668,755.365662 
	C462.923737,757.818848 465.796875,759.233093 465.569458,763.065063 
z"/>
<path fill="#000000" opacity="1.000000" stroke="none" 
	d="
M304.904510,301.347290 
	C302.402954,299.358185 302.886414,297.557037 304.670715,295.599731 
	C307.856201,298.272095 308.564514,302.315277 311.274872,306.133850 
	C307.549103,305.812927 307.039337,302.768707 304.904510,301.347290 
z"/>
<path fill="#000000" opacity="1.000000" stroke="none" 
	d="
M184.178162,302.205109 
	C182.728119,303.187408 181.192154,302.826538 182.004669,301.401459 
	C183.459564,298.849670 184.279480,295.554321 187.743759,294.145569 
	C189.467911,296.513489 189.600845,298.200562 186.692139,299.574951 
	C185.739059,300.025299 185.108795,301.158813 184.178162,302.205109 
z"/>
<path fill="#000000" opacity="1.000000" stroke="none" 
	d="
M454.634827,760.930420 
	C455.059204,763.291870 454.894928,765.160950 452.688934,766.518250 
	C450.163513,765.114441 450.178711,763.141113 451.309998,760.826965 
	C452.271454,758.860229 453.330078,758.913391 454.634827,760.930420 
z"/>
<path fill="#000000" opacity="1.000000" stroke="none" 
	d="
M133.976501,365.663940 
	C133.831665,366.536469 133.626266,367.152649 133.370163,367.747009 
	C132.604919,369.522736 131.860214,371.479523 129.546860,371.494507 
	C128.404907,371.501953 127.653473,370.184845 128.367401,369.336639 
	C129.831192,367.597504 130.047729,363.839661 133.976501,365.663940 
z"/>
<path fill="#000000" opacity="1.000000" stroke="none" 
	d="
M252.584946,293.961975 
	C249.754471,292.863403 249.220490,290.464874 247.753250,287.936432 
	C253.154343,289.201233 254.294937,290.750214 252.584946,293.961975 
z"/>
<path fill="#000000" opacity="1.000000" stroke="none" 
	d="
M428.809509,760.955627 
	C429.875885,762.129761 431.145630,762.894714 430.540985,764.805786 
	C426.085510,764.032715 423.971985,761.821899 425.379120,756.559387 
	C426.253021,758.424377 426.937469,760.018982 428.809509,760.955627 
z"/>
<path fill="#000000" opacity="1.000000" stroke="none" 
	d="
M442.012634,754.990112 
	C440.568146,754.305725 439.106934,753.635193 437.311798,752.811401 
	C438.307739,750.707336 439.075043,748.880859 441.742126,749.238403 
	C443.238281,750.947998 442.462524,752.689331 442.042084,754.716858 
	C441.962708,755.032227 441.995911,755.003906 442.012634,754.990112 
z"/>
<path fill="#000000" opacity="1.000000" stroke="none" 
	d="
M108.754295,609.203308 
	C107.273453,610.899841 105.675125,611.132629 104.509674,609.488831 
	C103.798309,608.485413 104.437340,607.103149 105.619705,606.611389 
	C107.731728,605.732849 108.685333,606.843140 108.754295,609.203308 
z"/>
<path fill="#000000" opacity="1.000000" stroke="none" 
	d="
M250.213577,300.410858 
	C250.171829,298.837616 250.629089,297.972229 251.729691,299.307465 
	C252.822998,300.633850 256.076111,301.202484 253.921799,304.134918 
	C251.443481,304.149719 250.983429,302.279785 250.213577,300.410858 
z"/>
<path fill="#000000" opacity="1.000000" stroke="none" 
	d="
M93.035751,517.148010 
	C95.087555,519.835388 93.695877,522.852783 93.414352,525.828430 
	C91.894371,523.112610 90.807549,520.360413 93.035751,517.148010 
z"/>
<path fill="#000000" opacity="1.000000" stroke="none" 
	d="
M587.928223,483.691986 
	C589.379944,486.327393 589.021118,488.877899 587.980713,491.418854 
	C586.966064,488.858734 586.494751,486.291504 587.928223,483.691986 
z"/>
<path fill="#000000" opacity="1.000000" stroke="none" 
	d="
M549.180176,313.125061 
	C549.424988,314.419067 549.300232,315.651764 549.667297,316.714630 
	C552.668274,325.404602 551.378784,328.759796 544.369507,334.748779 
	C541.781860,336.959717 538.628601,338.153717 536.223816,340.534149 
	C534.942078,341.802979 532.853210,341.674744 531.459351,341.053986 
	C524.281128,337.857117 516.656738,335.202118 512.072205,327.619080 
	C518.719116,320.213104 523.771179,311.534607 531.333862,304.935577 
	C533.434998,303.102173 535.623413,303.317963 537.706299,304.811981 
	C541.226685,307.337128 544.657288,309.987366 548.443970,312.641602 
	C548.762207,312.698181 549.038513,312.985046 549.180176,313.125061 
z"/>
<path fill="#000000" opacity="1.000000" stroke="none" 
	d="
M574.019775,633.020142 
	C571.829895,622.540771 575.727112,614.715393 584.657288,609.250854 
	C589.205200,606.468018 594.209412,607.234558 598.964233,608.474426 
	C605.183044,610.096130 607.786499,615.846558 611.186035,620.473267 
	C613.763611,623.981262 611.706970,631.489502 607.950256,636.001526 
	C602.423645,642.639221 595.800842,645.174194 587.413391,642.441040 
	C582.071716,640.700439 578.583435,636.453125 574.238403,632.988464 
	C573.971680,632.976807 574.003784,633.005615 574.019775,633.020142 
z"/>
<path fill="#000000" opacity="1.000000" stroke="none" 
	d="
M551.035461,683.989502 
	C553.812927,680.178162 555.828003,679.570740 558.801941,683.742432 
	C560.834900,686.594177 564.201904,688.532471 566.249695,691.557983 
	C564.556335,696.348267 561.370483,699.928711 557.159485,702.465698 
	C552.984680,704.980835 549.597473,702.348145 546.446899,700.001770 
	C543.445435,697.766296 544.421936,694.385193 545.445923,691.833252 
	C546.567261,689.038879 548.122620,686.162415 551.035461,683.989502 
z"/>
<path fill="#000000" opacity="1.000000" stroke="none" 
	d="
M211.014709,730.996765 
	C220.741302,718.390930 230.300949,706.087280 239.989120,693.618286 
	C233.560516,687.104614 226.145920,682.574280 219.600891,676.996460 
	C217.970871,675.607361 214.740936,674.820557 215.814011,671.850403 
	C216.997131,668.575684 219.123077,665.690674 222.107071,663.684326 
	C223.019684,663.070618 224.077454,663.646362 224.872971,664.267334 
	C236.770950,673.555847 248.653183,682.864563 260.692627,692.288574 
	C255.528717,700.427429 249.477081,707.278137 243.955658,714.518494 
	C237.100479,723.507874 230.012772,732.323303 223.304611,741.419678 
	C220.874725,744.714600 218.914429,744.853455 216.168762,742.133972 
	C214.996613,740.972961 213.642197,739.926636 212.209335,739.111816 
	C208.508713,737.007446 207.672409,734.537231 211.014709,730.996765 
z"/>
<path fill="#000000" opacity="1.000000" stroke="none" 
	d="
M284.296112,704.464600 
	C292.593292,706.314209 300.274200,708.845337 305.908997,714.846069 
	C314.731384,724.241394 314.603851,735.264954 310.134430,746.537048 
	C306.214966,756.421997 301.815948,766.116699 297.885406,775.997498 
	C296.234589,780.147400 294.081360,780.817932 290.262848,778.739197 
	C282.418793,774.468872 281.798065,773.700928 285.481262,765.657410 
	C289.423859,757.047363 292.799133,748.243713 295.832275,739.300781 
	C299.440308,728.662781 295.643494,721.127625 285.745361,718.862427 
	C279.420502,717.415039 274.622498,719.344666 271.461884,725.156250 
	C265.646973,735.848511 261.741394,747.392822 257.074066,758.591980 
	C255.321350,762.797546 253.881561,764.342529 249.096924,761.801331 
	C240.402695,757.183594 240.128174,757.523926 244.011185,748.294250 
	C248.068939,738.649231 251.495300,728.616699 256.666290,719.595398 
	C262.069244,710.169373 270.713379,702.090393 284.296112,704.464600 
z"/>
<path fill="#000000" opacity="1.000000" stroke="none" 
	d="
M135.261261,463.725830 
	C139.900986,463.667725 139.903946,466.735535 138.883911,469.176453 
	C138.079163,471.102234 137.674850,473.199951 136.757416,475.239807 
	C133.313004,472.826477 130.060455,470.547577 126.393761,467.978516 
	C129.261154,466.207642 130.986130,463.044739 135.261261,463.725830 
z"/>
<path fill="#000000" opacity="1.000000" stroke="none" 
	d="
M433.561584,291.665314 
	C431.914825,289.922333 428.396637,290.501587 428.916962,287.437531 
	C429.280701,285.295441 428.868591,282.300964 431.261993,281.264954 
	C433.875153,280.133820 436.846893,280.089539 439.098969,282.566437 
	C440.555481,284.168335 442.441620,285.082764 444.455780,284.619568 
	C448.528412,283.683014 450.411652,287.028748 452.797424,288.885956 
	C455.100403,290.678711 452.589691,294.780243 448.747101,294.675018 
	C443.711365,294.537048 438.564697,294.167786 433.561584,291.665314 
z"/>
<path fill="#000000" opacity="1.000000" stroke="none" 
	d="
M440.385254,265.299377 
	C436.750061,265.460480 435.290070,264.007721 435.983368,260.753082 
	C436.750214,257.153076 441.535370,253.999252 444.368988,256.073517 
	C448.518890,259.111298 454.553314,258.028717 457.619354,262.918274 
	C455.915253,268.380737 449.137451,270.559143 444.275116,266.957336 
	C443.175751,266.142975 442.191132,265.343506 440.385254,265.299377 
z"/>
</svg>